<svg id="svg" version="1.1" xmlns="http://www.w3.org/2000/svg" xmlns:xlink="http://www.w3.org/1999/xlink" width="400" height="556.6037735849056" viewBox="0, 0, 400,556.6037735849056"><g id="svgg"><path id="path0" d="M0.000 278.302 L 0.000 556.604 200.000 556.604 L 400.000 556.604 400.000 278.302 L 400.000 0.000 200.000 0.000 L 0.000 0.000 0.000 278.302 M173.891 247.583 C 173.751 247.968,173.771 247.969,174.193 247.608 C 174.932 246.975,175.970 247.108,176.710 247.929 C 177.067 248.325,177.358 248.568,177.358 248.470 C 177.358 248.372,177.517 248.422,177.710 248.583 C 177.903 248.743,178.030 248.942,177.993 249.024 C 177.956 249.107,178.222 249.460,178.585 249.808 C 178.948 250.157,179.245 250.382,179.245 250.310 C 179.245 250.237,179.403 250.309,179.596 250.470 C 179.790 250.630,179.917 250.829,179.880 250.911 C 179.843 250.994,180.109 251.346,180.472 251.695 C 180.835 252.043,181.132 252.269,181.132 252.197 C 181.132 252.124,181.290 252.196,181.483 252.356 C 181.676 252.517,181.804 252.715,181.767 252.798 C 181.729 252.881,181.996 253.233,182.359 253.582 C 182.722 253.930,183.019 254.156,183.019 254.083 C 183.019 254.011,183.177 254.083,183.370 254.243 C 183.563 254.403,183.691 254.602,183.653 254.685 C 183.616 254.767,183.883 255.120,184.246 255.468 C 184.609 255.817,184.906 256.043,184.906 255.970 C 184.906 255.898,185.064 255.970,185.257 256.130 C 185.450 256.290,185.577 256.489,185.540 256.572 C 185.503 256.654,185.769 257.007,186.132 257.355 C 186.495 257.704,186.792 257.929,186.792 257.857 C 186.792 257.785,186.950 257.856,187.144 258.017 C 187.337 258.177,187.464 258.376,187.427 258.458 C 187.390 258.541,187.656 258.894,188.019 259.242 C 188.382 259.590,188.679 259.816,188.679 259.744 C 188.679 259.671,188.837 259.743,189.030 259.904 C 189.224 260.064,189.351 260.263,189.314 260.345 C 189.276 260.428,189.543 260.780,189.906 261.129 C 190.269 261.477,190.566 261.703,190.566 261.631 C 190.566 261.558,190.724 261.630,190.917 261.790 C 191.110 261.951,191.238 262.149,191.201 262.232 C 191.163 262.315,191.430 262.667,191.793 263.016 C 192.156 263.364,192.453 263.590,192.453 263.517 C 192.453 263.445,192.611 263.517,192.804 263.677 C 192.997 263.837,193.125 264.036,193.087 264.119 C 193.050 264.201,193.317 264.554,193.680 264.902 C 194.043 265.251,194.340 265.477,194.340 265.404 C 194.340 265.332,194.498 265.404,194.691 265.564 C 194.884 265.724,195.011 265.923,194.974 266.005 C 194.937 266.088,195.203 266.441,195.566 266.789 C 195.929 267.138,196.226 267.363,196.226 267.291 C 196.226 267.219,196.384 267.290,196.578 267.451 C 196.771 267.611,196.898 267.810,196.861 267.892 C 196.824 267.975,197.090 268.328,197.453 268.676 C 197.816 269.024,198.113 269.250,198.113 269.178 C 198.113 269.105,198.271 269.177,198.464 269.337 C 198.658 269.498,198.785 269.696,198.748 269.779 C 198.710 269.862,198.977 270.214,199.340 270.563 C 199.703 270.911,200.000 271.137,200.000 271.065 C 200.000 270.992,200.158 271.064,200.351 271.224 C 200.544 271.385,200.672 271.583,200.635 271.666 C 200.597 271.748,200.864 272.101,201.227 272.450 C 201.590 272.798,201.887 273.024,201.887 272.951 C 201.887 272.879,202.045 272.951,202.238 273.111 C 202.431 273.271,202.559 273.470,202.521 273.553 C 202.484 273.635,202.751 273.988,203.114 274.336 C 203.477 274.685,203.774 274.911,203.774 274.838 C 203.774 274.766,203.932 274.838,204.125 274.998 C 204.318 275.158,204.445 275.357,204.408 275.439 C 204.371 275.522,204.637 275.875,205.000 276.223 C 205.363 276.572,205.660 276.797,205.660 276.725 C 205.660 276.652,205.818 276.724,206.012 276.885 C 206.205 277.045,206.332 277.244,206.295 277.326 C 206.258 277.409,206.524 277.762,206.887 278.110 C 207.250 278.458,207.547 278.684,207.547 278.612 C 207.547 278.539,207.705 278.611,207.898 278.771 C 208.091 278.932,208.219 279.130,208.182 279.213 C 208.144 279.296,208.411 279.648,208.774 279.997 C 209.137 280.345,209.434 280.571,209.434 280.499 C 209.434 280.426,209.592 280.498,209.785 280.658 C 209.978 280.819,210.106 281.017,210.069 281.100 C 210.031 281.182,210.298 281.535,210.661 281.884 C 211.024 282.232,211.321 282.458,211.321 282.385 C 211.321 282.313,211.479 282.385,211.672 282.545 C 211.865 282.705,211.993 282.904,211.955 282.987 C 211.918 283.069,212.184 283.422,212.548 283.770 C 212.911 284.119,213.208 284.345,213.208 284.272 C 213.208 284.200,213.366 284.272,213.559 284.432 C 213.752 284.592,213.879 284.791,213.842 284.873 C 213.805 284.956,214.071 285.309,214.434 285.657 C 214.797 286.006,215.094 286.231,215.094 286.159 C 215.094 286.086,215.252 286.158,215.446 286.319 C 215.639 286.479,215.766 286.678,215.729 286.760 C 215.692 286.843,215.958 287.195,216.321 287.544 C 216.684 287.892,216.981 288.118,216.981 288.046 C 216.981 287.973,217.139 288.045,217.332 288.205 C 217.525 288.366,217.653 288.564,217.616 288.647 C 217.578 288.730,217.845 289.082,218.208 289.431 C 218.571 289.779,218.868 290.005,218.868 289.932 C 218.868 289.860,219.026 289.932,219.219 290.092 C 219.412 290.252,219.540 290.451,219.502 290.534 C 219.465 290.616,219.732 290.969,220.095 291.318 C 220.458 291.666,220.755 291.892,220.755 291.819 C 220.755 291.747,220.913 291.819,221.106 291.979 C 221.299 292.139,221.427 292.338,221.389 292.421 C 221.352 292.503,221.618 292.856,221.981 293.204 C 222.344 293.553,222.642 293.779,222.642 293.706 C 222.642 293.634,222.800 293.705,222.993 293.866 C 223.186 294.026,223.286 294.251,223.215 294.366 C 223.144 294.481,223.198 294.575,223.335 294.575 C 223.813 294.575,223.581 295.511,223.010 295.885 C 222.639 296.128,222.485 296.396,222.578 296.637 C 222.677 296.896,222.631 296.955,222.427 296.829 C 222.153 296.660,221.283 297.556,221.392 297.896 C 221.416 297.972,220.884 298.023,220.211 298.010 C 219.017 297.988,218.444 297.475,219.340 297.230 C 219.649 297.146,219.650 297.164,219.346 297.375 C 219.156 297.507,219.091 297.701,219.202 297.806 C 219.313 297.910,219.453 297.858,219.513 297.691 C 219.600 297.445,219.697 297.443,220.011 297.683 C 220.226 297.847,220.147 297.696,219.836 297.347 C 219.525 296.998,219.173 296.773,219.054 296.847 C 218.934 296.921,218.870 296.788,218.911 296.553 C 218.973 296.198,218.822 296.123,218.042 296.116 C 217.094 296.108,216.673 295.557,217.453 295.344 C 217.762 295.259,217.763 295.278,217.460 295.488 C 217.269 295.621,217.204 295.814,217.315 295.919 C 217.426 296.023,217.566 295.971,217.626 295.804 C 217.714 295.558,217.810 295.557,218.124 295.797 C 218.339 295.960,218.260 295.809,217.949 295.460 C 217.638 295.111,217.276 294.893,217.143 294.975 C 217.000 295.063,216.958 294.976,217.040 294.761 C 217.132 294.524,216.979 294.307,216.598 294.133 C 215.834 293.785,215.335 293.797,215.312 294.163 C 215.297 294.399,215.269 294.399,215.174 294.163 C 215.021 293.784,181.248 293.726,181.014 294.104 C 180.934 294.233,180.689 294.332,180.470 294.323 C 180.144 294.310,180.158 294.269,180.542 294.104 C 180.988 293.912,180.983 293.900,180.468 293.885 C 180.168 293.875,179.724 293.762,179.483 293.633 C 179.020 293.385,178.302 293.540,178.302 293.887 C 178.302 294.000,178.647 294.041,179.068 293.978 L 179.835 293.863 179.179 294.124 C 178.368 294.445,177.727 294.240,177.926 293.722 C 178.028 293.456,177.969 293.383,177.727 293.476 C 177.496 293.565,177.426 293.496,177.514 293.266 C 177.662 292.879,178.066 292.802,178.066 293.160 C 178.066 293.290,178.252 293.393,178.479 293.389 C 178.851 293.382,178.855 293.353,178.517 293.094 C 178.312 292.936,177.834 292.329,177.456 291.745 L 176.769 290.684 176.703 272.377 C 176.639 254.504,176.626 254.060,176.172 253.649 C 175.917 253.418,175.708 253.343,175.708 253.482 C 175.708 253.621,175.840 253.782,176.002 253.840 C 176.165 253.897,176.218 254.030,176.120 254.134 C 175.851 254.423,175.613 254.065,175.600 253.355 C 175.591 252.771,175.511 252.717,174.646 252.715 C 173.698 252.712,173.275 252.161,174.057 251.947 C 174.366 251.863,174.367 251.881,174.063 252.092 C 173.873 252.224,173.808 252.418,173.919 252.523 C 174.030 252.627,174.170 252.575,174.230 252.408 C 174.317 252.162,174.413 252.160,174.728 252.400 C 174.943 252.564,174.864 252.413,174.553 252.064 C 174.242 251.715,173.890 251.490,173.771 251.564 C 173.651 251.638,173.587 251.502,173.628 251.262 C 173.682 250.948,173.580 250.847,173.266 250.900 C 173.005 250.945,172.892 250.874,172.985 250.724 C 173.093 250.549,172.954 250.544,172.522 250.708 C 171.750 251.002,171.698 251.001,171.698 250.694 C 171.698 250.556,171.804 250.509,171.934 250.590 C 172.241 250.779,172.233 250.559,171.910 249.956 C 171.707 249.576,171.716 249.511,171.951 249.656 C 172.163 249.788,172.206 249.727,172.099 249.449 C 171.932 249.012,172.286 248.908,172.540 249.319 C 172.629 249.463,172.559 249.670,172.384 249.778 C 172.209 249.886,172.138 250.047,172.226 250.135 C 172.315 250.224,173.035 249.674,173.826 248.915 C 174.617 248.155,175.145 247.493,174.999 247.445 C 174.853 247.396,174.589 247.553,174.411 247.794 C 174.059 248.271,173.382 247.926,173.690 247.426 C 173.936 247.028,174.059 247.124,173.891 247.583 M177.193 247.583 C 177.050 247.975,177.066 247.975,177.510 247.586 C 177.871 247.270,178.042 247.240,178.258 247.456 C 178.713 247.911,178.581 248.114,177.878 248.037 C 177.058 247.947,176.601 247.678,176.779 247.389 C 177.019 247.001,177.349 247.155,177.193 247.583 M185.062 247.564 C 185.328 247.671,185.400 247.632,185.284 247.446 C 185.190 247.294,185.220 247.170,185.350 247.170 C 185.479 247.170,185.651 247.276,185.731 247.406 C 185.811 247.535,186.056 247.640,186.276 247.638 C 186.619 247.635,186.626 247.603,186.321 247.406 C 186.108 247.268,186.079 247.176,186.248 247.173 C 186.402 247.171,186.594 247.276,186.675 247.406 C 186.769 247.559,192.618 247.642,203.449 247.642 C 214.820 247.642,220.227 247.721,220.550 247.894 C 220.910 248.087,221.158 248.058,221.596 247.771 C 221.912 247.564,222.170 247.496,222.170 247.620 C 222.170 247.744,221.938 247.919,221.654 248.009 C 221.209 248.150,221.188 248.209,221.497 248.438 C 221.695 248.584,222.166 249.180,222.544 249.764 L 223.231 250.825 223.349 267.925 L 223.467 285.024 223.585 268.750 C 223.707 251.849,223.667 250.792,222.855 249.687 C 222.282 248.908,222.374 248.606,222.980 249.276 C 224.206 250.630,224.283 251.843,224.297 269.869 C 224.304 279.081,224.253 286.675,224.183 286.744 C 224.114 286.814,224.031 279.185,223.999 269.792 L 223.942 252.712 223.880 269.037 C 223.825 283.400,223.775 285.345,223.465 285.226 C 223.010 285.052,223.011 285.478,223.467 285.933 C 223.871 286.337,223.934 286.792,223.585 286.792 C 223.455 286.792,223.347 286.660,223.345 286.498 C 223.343 286.314,223.277 286.292,223.169 286.440 C 222.689 287.097,220.835 286.719,220.885 285.975 C 220.949 285.013,220.646 284.699,219.722 284.772 C 218.992 284.830,218.951 284.792,218.997 284.103 C 219.062 283.126,218.763 282.812,217.835 282.885 C 217.105 282.943,217.064 282.905,217.110 282.216 C 217.175 281.239,216.876 280.925,215.948 280.999 C 215.218 281.057,215.177 281.019,215.223 280.330 C 215.289 279.352,214.989 279.038,214.061 279.112 C 213.331 279.170,213.290 279.132,213.336 278.443 C 213.402 277.465,213.102 277.151,212.174 277.225 C 211.445 277.283,211.404 277.245,211.450 276.556 C 211.515 275.579,211.215 275.265,210.288 275.338 C 209.558 275.396,209.517 275.358,209.563 274.669 C 209.628 273.692,209.329 273.378,208.401 273.451 C 207.671 273.509,207.630 273.472,207.676 272.782 C 207.741 271.805,207.442 271.491,206.514 271.565 C 205.784 271.623,205.743 271.585,205.789 270.896 C 205.855 269.918,205.555 269.604,204.627 269.678 C 203.897 269.736,203.856 269.698,203.903 269.009 C 203.968 268.031,203.668 267.717,202.740 267.791 C 202.011 267.849,201.970 267.811,202.016 267.122 C 202.081 266.144,201.781 265.831,200.849 265.905 C 200.103 265.964,200.074 265.934,200.133 265.188 C 200.207 264.256,199.894 263.957,198.916 264.022 C 198.227 264.068,198.189 264.027,198.247 263.297 C 198.320 262.371,198.006 262.070,197.033 262.135 C 196.360 262.180,196.311 262.131,196.356 261.457 C 196.421 260.483,196.120 260.170,195.189 260.244 C 194.443 260.303,194.414 260.274,194.473 259.528 C 194.547 258.596,194.234 258.296,193.255 258.362 C 192.566 258.408,192.528 258.367,192.586 257.637 C 192.660 256.710,192.346 256.410,191.373 256.475 C 190.699 256.520,190.650 256.470,190.695 255.797 C 190.760 254.823,190.460 254.510,189.529 254.584 C 188.783 254.643,188.753 254.614,188.812 253.868 C 188.886 252.936,188.573 252.636,187.595 252.701 C 186.906 252.747,186.868 252.706,186.926 251.977 C 186.999 251.053,186.686 250.749,185.727 250.813 C 185.054 250.858,185.015 250.813,185.015 249.987 C 185.015 249.307,185.094 249.141,185.373 249.240 C 185.579 249.314,185.648 249.277,185.535 249.154 C 185.428 249.037,184.844 248.929,184.238 248.914 C 183.419 248.895,183.117 248.789,183.061 248.502 C 183.006 248.222,183.096 248.158,183.388 248.270 C 183.672 248.379,183.755 248.326,183.670 248.092 C 183.604 247.909,183.430 247.786,183.284 247.818 C 183.138 247.851,183.019 247.771,183.019 247.642 C 183.019 247.333,183.656 247.336,183.847 247.645 C 183.928 247.777,184.105 247.817,184.240 247.734 C 184.398 247.636,184.372 247.502,184.164 247.354 C 183.837 247.120,184.130 247.188,185.062 247.564 M221.336 247.420 C 221.260 247.542,220.986 247.642,220.727 247.642 C 220.112 247.642,220.333 247.284,220.978 247.236 C 221.250 247.215,221.411 247.298,221.336 247.420 M179.194 248.849 C 179.232 249.044,179.066 249.206,178.808 249.225 C 178.467 249.251,178.385 249.144,178.476 248.794 C 178.611 248.278,179.090 248.314,179.194 248.849 M180.425 249.784 C 180.425 249.892,180.114 249.959,179.734 249.932 C 179.094 249.886,179.071 249.853,179.416 249.470 C 179.782 249.065,180.425 249.265,180.425 249.784 M224.435 250.517 L 224.455 251.978 224.154 250.960 C 223.907 250.123,224.051 249.057,224.410 249.057 C 224.413 249.057,224.424 249.714,224.435 250.517 M185.436 249.698 C 185.274 249.756,185.142 249.912,185.142 250.045 C 185.142 250.178,185.295 250.227,185.483 250.155 C 185.712 250.068,185.782 250.137,185.694 250.366 C 185.622 250.554,185.669 250.708,185.799 250.708 C 186.169 250.708,186.323 250.059,186.012 249.813 C 185.857 249.691,185.598 249.639,185.436 249.698 M181.081 250.735 C 181.119 250.931,180.953 251.092,180.694 251.112 C 180.354 251.138,180.272 251.031,180.363 250.681 C 180.498 250.165,180.977 250.201,181.081 250.735 M182.311 251.670 C 182.311 251.779,182.001 251.846,181.621 251.818 C 180.981 251.772,180.958 251.739,181.303 251.357 C 181.669 250.952,182.311 251.152,182.311 251.670 M187.323 251.584 C 187.161 251.643,187.028 251.799,187.028 251.932 C 187.028 252.064,187.182 252.114,187.370 252.042 C 187.598 251.954,187.668 252.024,187.581 252.253 C 187.509 252.441,187.556 252.594,187.685 252.594 C 188.055 252.594,188.210 251.945,187.899 251.700 C 187.744 251.578,187.485 251.526,187.323 251.584 M182.967 252.622 C 183.005 252.818,182.840 252.979,182.581 252.999 C 182.240 253.024,182.158 252.918,182.250 252.568 C 182.385 252.052,182.864 252.088,182.967 252.622 M184.198 253.557 C 184.198 253.666,183.888 253.732,183.508 253.705 C 182.867 253.659,182.845 253.626,183.190 253.244 C 183.556 252.839,184.198 253.039,184.198 253.557 M189.210 253.471 C 189.048 253.529,188.915 253.686,188.915 253.818 C 188.915 253.951,189.069 254.001,189.257 253.929 C 189.485 253.841,189.555 253.911,189.467 254.139 C 189.395 254.327,189.442 254.481,189.572 254.481 C 189.942 254.481,190.097 253.832,189.786 253.587 C 189.631 253.465,189.372 253.413,189.210 253.471 M184.854 254.509 C 184.892 254.704,184.726 254.866,184.468 254.885 C 184.127 254.911,184.045 254.805,184.137 254.455 C 184.272 253.939,184.751 253.975,184.854 254.509 M176.408 272.282 C 176.404 290.929,176.432 291.526,177.334 292.084 C 177.477 292.173,177.594 292.361,177.594 292.503 C 177.594 293.107,176.636 291.827,176.256 290.715 C 175.662 288.983,175.366 254.554,175.943 254.396 C 176.138 254.343,176.323 254.288,176.354 254.273 C 176.385 254.258,176.410 262.362,176.408 272.282 M176.055 271.698 C 176.055 281.103,176.084 284.950,176.120 280.248 C 176.156 275.545,176.156 267.851,176.120 263.149 C 176.084 258.446,176.055 262.294,176.055 271.698 M186.085 255.444 C 186.085 255.553,185.774 255.619,185.395 255.592 C 184.754 255.546,184.731 255.513,185.077 255.131 C 185.442 254.726,186.085 254.926,186.085 255.444 M191.097 255.358 C 190.935 255.416,190.802 255.572,190.802 255.705 C 190.802 255.838,190.956 255.888,191.144 255.816 C 191.372 255.728,191.442 255.798,191.354 256.026 C 191.282 256.214,191.329 256.368,191.459 256.368 C 191.829 256.368,191.984 255.719,191.672 255.473 C 191.518 255.352,191.259 255.300,191.097 255.358 M186.741 256.396 C 186.779 256.591,186.613 256.753,186.355 256.772 C 186.014 256.798,185.932 256.691,186.023 256.342 C 186.158 255.826,186.637 255.862,186.741 256.396 M187.972 257.331 C 187.972 257.439,187.661 257.506,187.282 257.479 C 186.641 257.433,186.618 257.400,186.964 257.017 C 187.329 256.613,187.972 256.812,187.972 257.331 M192.983 257.245 C 192.821 257.303,192.689 257.459,192.689 257.592 C 192.689 257.725,192.842 257.774,193.030 257.702 C 193.259 257.615,193.329 257.685,193.241 257.913 C 193.169 258.101,193.216 258.255,193.346 258.255 C 193.716 258.255,193.871 257.606,193.559 257.360 C 193.405 257.238,193.146 257.186,192.983 257.245 M188.628 258.282 C 188.666 258.478,188.500 258.640,188.241 258.659 C 187.901 258.685,187.819 258.578,187.910 258.228 C 188.045 257.712,188.524 257.748,188.628 258.282 M189.858 259.217 C 189.858 259.326,189.548 259.393,189.168 259.366 C 188.528 259.320,188.505 259.287,188.850 258.904 C 189.216 258.499,189.858 258.699,189.858 259.217 M194.870 259.132 C 194.708 259.190,194.575 259.346,194.575 259.479 C 194.575 259.612,194.729 259.661,194.917 259.589 C 195.146 259.501,195.216 259.571,195.128 259.800 C 195.056 259.988,195.103 260.142,195.233 260.142 C 195.603 260.142,195.757 259.493,195.446 259.247 C 195.291 259.125,195.032 259.073,194.870 259.132 M190.515 260.169 C 190.553 260.365,190.387 260.526,190.128 260.546 C 189.788 260.571,189.706 260.465,189.797 260.115 C 189.932 259.599,190.411 259.635,190.515 260.169 M191.745 261.104 C 191.745 261.213,191.435 261.280,191.055 261.252 C 190.415 261.206,190.392 261.173,190.737 260.791 C 191.103 260.386,191.745 260.586,191.745 261.104 M196.757 261.018 C 196.595 261.077,196.462 261.233,196.462 261.366 C 196.462 261.498,196.616 261.548,196.804 261.476 C 197.032 261.388,197.102 261.458,197.015 261.687 C 196.943 261.875,196.990 262.028,197.119 262.028 C 197.489 262.028,197.644 261.379,197.333 261.134 C 197.178 261.012,196.919 260.960,196.757 261.018 M192.401 262.056 C 192.439 262.252,192.274 262.413,192.015 262.433 C 191.674 262.458,191.592 262.352,191.684 262.002 C 191.819 261.486,192.298 261.522,192.401 262.056 M193.632 262.991 C 193.632 263.100,193.322 263.166,192.942 263.139 C 192.301 263.093,192.279 263.060,192.624 262.678 C 192.990 262.273,193.632 262.473,193.632 262.991 M198.644 262.905 C 198.482 262.963,198.349 263.120,198.349 263.252 C 198.349 263.385,198.503 263.435,198.691 263.363 C 198.919 263.275,198.989 263.345,198.901 263.573 C 198.829 263.761,198.876 263.915,199.006 263.915 C 199.376 263.915,199.531 263.266,199.219 263.021 C 199.065 262.899,198.806 262.847,198.644 262.905 M194.288 263.943 C 194.326 264.138,194.160 264.300,193.902 264.319 C 193.561 264.345,193.479 264.239,193.571 263.889 C 193.706 263.373,194.184 263.409,194.288 263.943 M195.519 264.878 C 195.519 264.986,195.208 265.053,194.829 265.026 C 194.188 264.980,194.165 264.947,194.511 264.565 C 194.876 264.160,195.519 264.360,195.519 264.878 M200.531 264.792 C 200.369 264.850,200.236 265.006,200.236 265.139 C 200.236 265.272,200.390 265.322,200.578 265.250 C 200.806 265.162,200.876 265.232,200.788 265.460 C 200.716 265.648,200.763 265.802,200.893 265.802 C 201.263 265.802,201.418 265.153,201.106 264.907 C 200.952 264.786,200.693 264.734,200.531 264.792 M196.175 265.830 C 196.213 266.025,196.047 266.187,195.789 266.206 C 195.448 266.232,195.366 266.125,195.457 265.776 C 195.592 265.259,196.071 265.296,196.175 265.830 M197.406 266.765 C 197.406 266.873,197.095 266.940,196.716 266.913 C 196.075 266.867,196.052 266.834,196.398 266.451 C 196.763 266.047,197.406 266.246,197.406 266.765 M202.417 266.679 C 202.255 266.737,202.123 266.893,202.123 267.026 C 202.123 267.159,202.276 267.208,202.464 267.136 C 202.693 267.049,202.763 267.118,202.675 267.347 C 202.603 267.535,202.650 267.689,202.780 267.689 C 203.150 267.689,203.305 267.040,202.993 266.794 C 202.839 266.672,202.580 266.620,202.417 266.679 M198.062 267.716 C 198.100 267.912,197.934 268.074,197.675 268.093 C 197.335 268.119,197.253 268.012,197.344 267.662 C 197.479 267.146,197.958 267.182,198.062 267.716 M199.292 268.651 C 199.292 268.760,198.982 268.827,198.602 268.799 C 197.962 268.754,197.939 268.721,198.284 268.338 C 198.650 267.933,199.292 268.133,199.292 268.651 M204.304 268.565 C 204.142 268.624,204.009 268.780,204.009 268.913 C 204.009 269.046,204.163 269.095,204.351 269.023 C 204.580 268.935,204.649 269.005,204.562 269.234 C 204.490 269.422,204.537 269.575,204.667 269.575 C 205.037 269.575,205.191 268.927,204.880 268.681 C 204.725 268.559,204.466 268.507,204.304 268.565 M199.949 269.603 C 199.987 269.799,199.821 269.960,199.562 269.980 C 199.222 270.005,199.140 269.899,199.231 269.549 C 199.366 269.033,199.845 269.069,199.949 269.603 M201.179 270.538 C 201.179 270.647,200.869 270.713,200.489 270.686 C 199.848 270.640,199.826 270.607,200.171 270.225 C 200.537 269.820,201.179 270.020,201.179 270.538 M206.191 270.452 C 206.029 270.511,205.896 270.667,205.896 270.800 C 205.896 270.932,206.050 270.982,206.238 270.910 C 206.466 270.822,206.536 270.892,206.449 271.121 C 206.376 271.308,206.424 271.462,206.553 271.462 C 206.923 271.462,207.078 270.813,206.767 270.568 C 206.612 270.446,206.353 270.394,206.191 270.452 M201.835 271.490 C 201.873 271.686,201.708 271.847,201.449 271.867 C 201.108 271.892,201.026 271.786,201.118 271.436 C 201.253 270.920,201.732 270.956,201.835 271.490 M203.066 272.425 C 203.066 272.534,202.756 272.600,202.376 272.573 C 201.735 272.527,201.713 272.494,202.058 272.112 C 202.424 271.707,203.066 271.907,203.066 272.425 M208.078 272.339 C 207.916 272.397,207.783 272.554,207.783 272.686 C 207.783 272.819,207.937 272.869,208.125 272.797 C 208.353 272.709,208.423 272.779,208.335 273.007 C 208.263 273.195,208.310 273.349,208.440 273.349 C 208.810 273.349,208.965 272.700,208.653 272.455 C 208.499 272.333,208.240 272.281,208.078 272.339 M203.722 273.377 C 203.760 273.572,203.594 273.734,203.336 273.753 C 202.995 273.779,202.913 273.672,203.005 273.323 C 203.140 272.807,203.618 272.843,203.722 273.377 M204.953 274.312 C 204.953 274.420,204.642 274.487,204.263 274.460 C 203.622 274.414,203.599 274.381,203.945 273.998 C 204.310 273.594,204.953 273.793,204.953 274.312 M209.965 274.226 C 209.802 274.284,209.670 274.440,209.670 274.573 C 209.670 274.706,209.824 274.756,210.012 274.683 C 210.240 274.596,210.310 274.666,210.222 274.894 C 210.150 275.082,210.197 275.236,210.327 275.236 C 210.697 275.236,210.852 274.587,210.540 274.341 C 210.386 274.220,210.127 274.168,209.965 274.226 M191.215 275.039 C 190.858 275.439,190.566 275.829,190.566 275.904 C 190.566 275.980,189.930 276.862,189.153 277.865 C 188.165 279.139,187.787 279.811,187.897 280.097 C 188.017 280.411,187.962 280.471,187.659 280.355 C 187.235 280.192,187.108 280.536,187.502 280.779 C 187.910 281.032,188.590 280.191,188.187 279.931 C 187.958 279.784,187.934 279.661,188.110 279.540 C 188.251 279.443,188.464 279.182,188.585 278.961 C 188.741 278.675,188.905 278.623,189.154 278.781 C 189.456 278.971,189.450 279.003,189.117 279.006 C 188.646 279.010,188.494 279.367,188.553 280.325 C 188.601 281.084,187.894 281.293,187.012 280.781 C 186.827 280.673,186.743 280.661,186.826 280.755 C 186.910 280.848,186.751 281.178,186.473 281.487 C 186.195 281.796,185.727 282.318,185.433 282.647 L 184.898 283.245 195.367 283.309 C 203.371 283.358,205.811 283.307,205.729 283.093 C 205.670 282.939,205.454 282.877,205.248 282.956 C 204.987 283.056,204.931 283.009,205.062 282.797 C 205.171 282.621,205.122 282.416,204.945 282.307 C 204.585 282.084,204.009 282.263,204.009 282.598 C 204.009 282.727,204.195 282.763,204.422 282.676 C 204.753 282.550,204.776 282.578,204.540 282.816 C 204.303 283.055,204.187 283.055,203.950 282.814 C 203.714 282.575,203.738 282.455,204.068 282.210 C 204.578 281.834,204.610 281.504,204.118 281.693 C 203.865 281.790,203.776 281.707,203.823 281.423 C 203.871 281.138,203.759 281.037,203.455 281.089 C 203.169 281.138,203.078 281.068,203.191 280.886 C 203.285 280.733,203.226 280.523,203.059 280.420 C 202.699 280.197,202.123 280.376,202.123 280.711 C 202.123 280.841,202.308 280.876,202.535 280.790 C 202.866 280.664,202.890 280.691,202.653 280.929 C 202.416 281.168,202.301 281.168,202.064 280.928 C 201.827 280.688,201.851 280.568,202.182 280.324 C 202.699 279.941,202.720 279.618,202.214 279.812 C 201.944 279.916,201.873 279.857,201.970 279.605 C 202.051 279.393,201.910 279.148,201.614 278.990 C 201.233 278.786,201.163 278.792,201.302 279.017 C 201.418 279.205,201.366 279.267,201.153 279.192 C 200.973 279.130,200.850 278.877,200.881 278.631 C 200.926 278.265,200.887 278.280,200.668 278.715 C 200.520 279.006,200.310 279.245,200.200 279.245 C 200.090 279.245,200.000 279.422,200.000 279.638 C 200.000 279.855,199.930 279.961,199.844 279.875 C 199.758 279.789,199.331 280.249,198.894 280.897 C 197.878 282.405,197.950 282.428,196.226 280.071 C 194.823 278.152,194.375 277.676,194.653 278.400 C 194.724 278.583,194.689 279.035,194.577 279.402 C 194.408 279.955,194.385 279.877,194.442 278.950 C 194.526 277.598,194.003 276.778,193.306 277.169 C 192.735 277.488,192.316 277.089,192.632 276.525 C 192.786 276.250,192.912 276.205,193.024 276.385 C 193.114 276.531,193.076 276.651,192.938 276.651 C 192.801 276.651,192.689 276.757,192.689 276.887 C 192.689 277.265,193.096 277.159,193.257 276.739 C 193.416 276.324,192.988 275.640,192.687 275.827 C 192.585 275.889,192.439 275.777,192.362 275.576 C 192.283 275.370,192.322 275.273,192.453 275.354 C 192.584 275.435,192.622 275.336,192.541 275.124 C 192.435 274.848,192.319 274.818,192.090 275.007 C 191.850 275.207,191.810 275.157,191.909 274.778 C 192.076 274.139,191.987 274.172,191.215 275.039 M205.609 275.264 C 205.647 275.459,205.481 275.621,205.223 275.640 C 204.882 275.666,204.800 275.559,204.891 275.210 C 205.026 274.693,205.505 274.730,205.609 275.264 M206.840 276.199 C 206.840 276.307,206.529 276.374,206.150 276.347 C 205.509 276.301,205.486 276.268,205.832 275.885 C 206.197 275.481,206.840 275.680,206.840 276.199 M211.851 276.113 C 211.689 276.171,211.557 276.327,211.557 276.460 C 211.557 276.593,211.710 276.642,211.898 276.570 C 212.127 276.483,212.197 276.552,212.109 276.781 C 212.037 276.969,212.084 277.123,212.214 277.123 C 212.584 277.123,212.738 276.474,212.427 276.228 C 212.273 276.106,212.014 276.054,211.851 276.113 M207.496 277.150 C 207.534 277.346,207.368 277.507,207.109 277.527 C 206.769 277.553,206.687 277.446,206.778 277.096 C 206.913 276.580,207.392 276.616,207.496 277.150 M189.906 278.113 C 189.686 278.333,189.623 278.270,189.623 277.830 C 189.623 277.390,189.686 277.327,189.906 277.547 C 190.126 277.767,190.126 277.893,189.906 278.113 M208.726 278.085 C 208.726 278.194,208.416 278.261,208.036 278.233 C 207.396 278.188,207.373 278.154,207.718 277.772 C 208.084 277.367,208.726 277.567,208.726 278.085 M213.738 277.999 C 213.576 278.058,213.443 278.214,213.443 278.347 C 213.443 278.480,213.597 278.529,213.785 278.457 C 214.014 278.369,214.083 278.439,213.996 278.668 C 213.924 278.856,213.971 279.009,214.100 279.009 C 214.471 279.009,214.625 278.361,214.314 278.115 C 214.159 277.993,213.900 277.941,213.738 277.999 M209.383 279.037 C 209.420 279.233,209.255 279.394,208.996 279.414 C 208.655 279.439,208.574 279.333,208.665 278.983 C 208.800 278.467,209.279 278.503,209.383 279.037 M190.566 279.009 C 190.566 279.139,190.327 279.244,190.035 279.242 C 189.606 279.239,189.572 279.194,189.858 279.009 C 190.316 278.714,190.566 278.714,190.566 279.009 M210.613 279.972 C 210.613 280.081,210.303 280.147,209.923 280.120 C 209.282 280.074,209.260 280.041,209.605 279.659 C 209.971 279.254,210.613 279.454,210.613 279.972 M215.625 279.886 C 215.463 279.944,215.330 280.101,215.330 280.234 C 215.330 280.366,215.484 280.416,215.672 280.344 C 215.900 280.256,215.970 280.326,215.883 280.554 C 215.810 280.742,215.858 280.896,215.987 280.896 C 216.357 280.896,216.512 280.247,216.201 280.002 C 216.046 279.880,215.787 279.828,215.625 279.886 M196.236 280.442 C 196.476 280.890,196.456 280.910,196.008 280.670 C 195.739 280.526,195.519 280.306,195.519 280.180 C 195.519 279.776,195.967 279.939,196.236 280.442 M195.047 280.323 C 195.047 280.398,194.888 280.617,194.693 280.812 C 194.309 281.196,194.261 281.139,194.483 280.562 C 194.617 280.211,195.047 280.030,195.047 280.323 M199.833 280.661 C 199.900 280.920,199.859 281.072,199.739 280.999 C 199.620 280.925,199.458 281.190,199.378 281.588 C 199.289 282.034,199.087 282.314,198.850 282.319 C 198.639 282.323,198.273 282.474,198.035 282.654 C 197.658 282.939,197.544 282.921,197.131 282.508 C 196.563 281.940,196.703 281.691,197.360 282.101 C 197.908 282.444,199.057 281.864,199.057 281.245 C 199.057 281.053,199.163 280.896,199.292 280.896 C 199.422 280.896,199.528 280.737,199.528 280.542 C 199.528 280.042,199.687 280.104,199.833 280.661 M211.269 280.924 C 211.307 281.119,211.142 281.281,210.883 281.301 C 210.542 281.326,210.460 281.220,210.552 280.870 C 210.687 280.354,211.166 280.390,211.269 280.924 M212.500 281.859 C 212.500 281.968,212.189 282.034,211.810 282.007 C 211.169 281.961,211.146 281.928,211.492 281.546 C 211.858 281.141,212.500 281.341,212.500 281.859 M186.792 281.705 C 186.792 281.890,186.638 282.196,186.450 282.384 C 186.262 282.573,186.173 282.793,186.253 282.873 C 186.334 282.953,186.276 283.019,186.124 283.019 C 185.743 283.019,185.780 282.650,186.203 282.227 C 186.397 282.033,186.557 281.760,186.557 281.621 C 186.557 281.482,186.610 281.368,186.675 281.368 C 186.739 281.368,186.792 281.520,186.792 281.705 M217.512 281.773 C 217.350 281.831,217.217 281.988,217.217 282.120 C 217.217 282.253,217.371 282.303,217.559 282.231 C 217.787 282.143,217.857 282.213,217.769 282.441 C 217.697 282.629,217.744 282.783,217.874 282.783 C 218.244 282.783,218.399 282.134,218.087 281.889 C 217.933 281.767,217.674 281.715,217.512 281.773 M213.156 282.811 C 213.194 283.006,213.028 283.168,212.770 283.187 C 212.429 283.213,212.347 283.106,212.439 282.757 C 212.574 282.241,213.052 282.277,213.156 282.811 M214.387 283.746 C 214.387 283.854,214.076 283.921,213.697 283.894 C 213.056 283.848,213.033 283.815,213.379 283.432 C 213.744 283.028,214.387 283.227,214.387 283.746 M219.399 283.660 C 219.236 283.718,219.104 283.874,219.104 284.007 C 219.104 284.140,219.258 284.190,219.446 284.117 C 219.674 284.030,219.744 284.100,219.656 284.328 C 219.584 284.516,219.631 284.670,219.761 284.670 C 220.131 284.670,220.286 284.021,219.974 283.775 C 219.820 283.654,219.561 283.602,219.399 283.660 M215.043 284.698 C 215.081 284.893,214.915 285.055,214.657 285.074 C 214.316 285.100,214.234 284.993,214.325 284.644 C 214.460 284.127,214.939 284.163,215.043 284.698 M216.274 285.633 C 216.274 285.741,215.963 285.808,215.584 285.781 C 214.943 285.735,214.920 285.702,215.266 285.319 C 215.631 284.915,216.274 285.114,216.274 285.633 M221.285 285.547 C 221.123 285.605,220.991 285.761,220.991 285.894 C 220.991 286.027,221.144 286.076,221.332 286.004 C 221.561 285.917,221.631 285.986,221.543 286.215 C 221.471 286.403,221.518 286.557,221.648 286.557 C 222.018 286.557,222.172 285.908,221.861 285.662 C 221.707 285.540,221.448 285.488,221.285 285.547 M216.930 286.584 C 216.968 286.780,216.802 286.941,216.543 286.961 C 216.203 286.987,216.121 286.880,216.212 286.530 C 216.347 286.014,216.826 286.050,216.930 286.584 M218.160 287.519 C 218.160 287.628,217.850 287.695,217.470 287.667 C 216.830 287.621,216.807 287.588,217.152 287.206 C 217.518 286.801,218.160 287.001,218.160 287.519 M218.816 288.471 C 218.854 288.667,218.689 288.828,218.430 288.848 C 218.089 288.873,218.007 288.767,218.099 288.417 C 218.234 287.901,218.713 287.937,218.816 288.471 M220.047 289.406 C 220.047 289.515,219.737 289.581,219.357 289.554 C 218.716 289.508,218.694 289.475,219.039 289.093 C 219.405 288.688,220.047 288.888,220.047 289.406 M175.868 291.992 C 175.633 292.328,175.581 292.152,175.565 290.964 L 175.545 289.531 175.849 290.559 C 176.086 291.363,176.090 291.674,175.868 291.992 M220.703 290.358 C 220.741 290.553,220.575 290.715,220.317 290.734 C 219.976 290.760,219.894 290.654,219.986 290.304 C 220.121 289.788,220.600 289.824,220.703 290.358 M221.934 291.293 C 221.934 291.402,221.623 291.468,221.244 291.441 C 220.603 291.395,220.580 291.362,220.926 290.980 C 221.292 290.575,221.934 290.775,221.934 291.293 M222.590 292.245 C 222.628 292.440,222.462 292.602,222.204 292.621 C 221.863 292.647,221.781 292.540,221.873 292.191 C 222.007 291.675,222.486 291.711,222.590 292.245 M223.821 293.180 C 223.821 293.288,223.510 293.355,223.131 293.328 C 222.490 293.282,222.467 293.249,222.813 292.866 C 223.178 292.462,223.821 292.661,223.821 293.180 M224.487 294.182 C 224.537 294.443,224.405 294.575,224.096 294.575 C 223.742 294.575,223.660 294.459,223.755 294.094 C 223.899 293.542,224.373 293.599,224.487 294.182 M222.536 297.426 C 222.779 297.819,222.233 298.270,221.907 297.945 C 221.635 297.673,221.806 297.170,222.170 297.170 C 222.284 297.170,222.449 297.285,222.536 297.426 " stroke="none" fill="#fcfcfc" fill-rule="evenodd"></path><path id="path1" d="M174.352 248.784 L 173.115 250.110 175.119 252.123 L 177.123 254.137 177.123 272.451 L 177.123 290.765 177.896 291.786 C 179.387 293.756,177.997 293.631,198.462 293.632 L 216.618 293.632 218.688 295.692 L 220.757 297.752 222.111 296.398 L 223.464 295.045 199.645 271.225 C 186.545 258.125,175.773 247.417,175.708 247.432 C 175.643 247.446,175.033 248.054,174.352 248.784 M203.656 266.979 L 222.759 286.086 222.820 268.491 C 222.888 248.645,223.001 249.915,221.054 248.581 L 220.200 247.995 202.376 247.933 L 184.552 247.871 203.656 266.979 M194.927 277.842 C 196.482 279.911,197.790 281.604,197.833 281.604 C 197.976 281.604,198.471 281.029,199.618 279.528 C 200.242 278.711,200.844 278.074,200.955 278.113 C 201.173 278.189,206.604 283.508,206.604 283.644 C 206.604 283.689,201.616 283.726,195.519 283.726 C 189.422 283.726,184.434 283.669,184.434 283.599 C 184.434 283.528,184.545 283.342,184.681 283.186 C 184.817 283.029,185.726 281.840,186.702 280.542 C 187.677 279.245,188.654 277.972,188.873 277.712 C 189.092 277.453,189.795 276.524,190.436 275.649 C 191.927 273.610,191.639 273.470,194.927 277.842 " stroke="none" fill="#acacac" fill-rule="evenodd"></path><path id="path2" d="M193.202 247.818 C 197.959 247.854,205.813 247.854,210.655 247.818 C 215.496 247.783,211.604 247.753,202.005 247.753 C 192.406 247.753,188.444 247.783,193.202 247.818 M222.989 268.986 C 222.989 278.455,223.018 282.295,223.054 277.518 C 223.090 272.741,223.090 264.994,223.054 260.301 C 223.018 255.608,222.989 259.517,222.989 268.986 M176.999 272.052 C 176.999 281.781,177.028 285.795,177.064 280.973 C 177.099 276.150,177.099 268.190,177.064 263.284 C 177.028 258.378,176.999 262.323,176.999 272.052 M189.800 293.809 C 194.761 293.844,202.880 293.844,207.842 293.809 C 212.804 293.773,208.744 293.744,198.821 293.744 C 188.897 293.744,184.838 293.773,189.800 293.809 " stroke="none" fill="#cccccc" fill-rule="evenodd"></path><path id="path3" d="M184.434 247.876 C 184.434 248.070,222.851 286.429,222.927 286.311 C 222.964 286.251,214.319 277.552,203.715 266.979 C 193.110 256.406,184.434 247.810,184.434 247.876 M174.044 248.762 L 173.231 249.646 174.116 248.833 C 174.939 248.077,175.108 247.877,174.928 247.877 C 174.889 247.877,174.491 248.275,174.044 248.762 M178.302 249.882 C 178.742 250.336,179.155 250.708,179.220 250.708 C 179.285 250.708,178.978 250.336,178.538 249.882 C 178.098 249.428,177.685 249.057,177.620 249.057 C 177.555 249.057,177.862 249.428,178.302 249.882 M180.189 251.769 C 180.629 252.223,181.042 252.594,181.107 252.594 C 181.172 252.594,180.865 252.223,180.425 251.769 C 179.984 251.315,179.571 250.943,179.507 250.943 C 179.442 250.943,179.749 251.315,180.189 251.769 M182.075 253.656 C 182.516 254.110,182.929 254.481,182.993 254.481 C 183.058 254.481,182.751 254.110,182.311 253.656 C 181.871 253.202,181.458 252.830,181.393 252.830 C 181.328 252.830,181.635 253.202,182.075 253.656 M183.962 255.542 C 184.402 255.996,184.815 256.368,184.880 256.368 C 184.945 256.368,184.638 255.996,184.198 255.542 C 183.758 255.088,183.345 254.717,183.280 254.717 C 183.215 254.717,183.522 255.088,183.962 255.542 M185.849 257.429 C 186.289 257.883,186.702 258.255,186.767 258.255 C 186.832 258.255,186.525 257.883,186.085 257.429 C 185.645 256.975,185.232 256.604,185.167 256.604 C 185.102 256.604,185.409 256.975,185.849 257.429 M187.736 259.316 C 188.176 259.770,188.589 260.142,188.654 260.142 C 188.719 260.142,188.412 259.770,187.972 259.316 C 187.532 258.862,187.119 258.491,187.054 258.491 C 186.989 258.491,187.296 258.862,187.736 259.316 M189.623 261.203 C 190.063 261.657,190.476 262.028,190.541 262.028 C 190.606 262.028,190.299 261.657,189.858 261.203 C 189.418 260.749,189.005 260.377,188.940 260.377 C 188.876 260.377,189.183 260.749,189.623 261.203 M191.509 263.090 C 191.949 263.544,192.363 263.915,192.427 263.915 C 192.492 263.915,192.185 263.544,191.745 263.090 C 191.305 262.636,190.892 262.264,190.827 262.264 C 190.762 262.264,191.069 262.636,191.509 263.090 M193.396 264.976 C 193.836 265.430,194.249 265.802,194.314 265.802 C 194.379 265.802,194.072 265.430,193.632 264.976 C 193.192 264.522,192.779 264.151,192.714 264.151 C 192.649 264.151,192.956 264.522,193.396 264.976 M195.283 266.863 C 195.723 267.317,196.136 267.689,196.201 267.689 C 196.266 267.689,195.959 267.317,195.519 266.863 C 195.079 266.409,194.666 266.038,194.601 266.038 C 194.536 266.038,194.843 266.409,195.283 266.863 M197.170 268.750 C 197.610 269.204,198.023 269.575,198.088 269.575 C 198.153 269.575,197.846 269.204,197.406 268.750 C 196.966 268.296,196.553 267.925,196.488 267.925 C 196.423 267.925,196.730 268.296,197.170 268.750 M199.057 270.637 C 199.497 271.091,199.910 271.462,199.975 271.462 C 200.039 271.462,199.732 271.091,199.292 270.637 C 198.852 270.183,198.439 269.811,198.374 269.811 C 198.310 269.811,198.617 270.183,199.057 270.637 M200.943 272.524 C 201.383 272.978,201.797 273.349,201.861 273.349 C 201.926 273.349,201.619 272.978,201.179 272.524 C 200.739 272.070,200.326 271.698,200.261 271.698 C 200.196 271.698,200.503 272.070,200.943 272.524 M202.830 274.410 C 203.270 274.864,203.683 275.236,203.748 275.236 C 203.813 275.236,203.506 274.864,203.066 274.410 C 202.626 273.956,202.213 273.585,202.148 273.585 C 202.083 273.585,202.390 273.956,202.830 274.410 M204.717 276.297 C 205.157 276.751,205.570 277.123,205.635 277.123 C 205.700 277.123,205.393 276.751,204.953 276.297 C 204.513 275.843,204.100 275.472,204.035 275.472 C 203.970 275.472,204.277 275.843,204.717 276.297 M206.604 278.184 C 207.044 278.638,207.457 279.009,207.522 279.009 C 207.587 279.009,207.280 278.638,206.840 278.184 C 206.400 277.730,205.986 277.358,205.922 277.358 C 205.857 277.358,206.164 277.730,206.604 278.184 M200.442 278.479 C 200.146 278.856,200.155 278.863,200.545 278.556 C 200.935 278.249,201.195 278.442,203.546 280.786 C 205.298 282.533,206.028 283.411,205.831 283.536 C 205.630 283.663,205.668 283.720,205.955 283.723 C 206.660 283.729,206.447 283.444,203.711 280.715 C 200.807 277.820,200.906 277.887,200.442 278.479 M208.491 280.071 C 208.931 280.525,209.344 280.896,209.409 280.896 C 209.473 280.896,209.166 280.525,208.726 280.071 C 208.286 279.617,207.873 279.245,207.808 279.245 C 207.744 279.245,208.051 279.617,208.491 280.071 M186.084 281.427 C 185.737 281.901,185.680 282.066,185.935 281.859 C 186.322 281.545,186.906 280.660,186.727 280.660 C 186.682 280.660,186.393 281.005,186.084 281.427 M210.377 281.958 C 210.817 282.412,211.231 282.783,211.295 282.783 C 211.360 282.783,211.053 282.412,210.613 281.958 C 210.173 281.504,209.760 281.132,209.695 281.132 C 209.630 281.132,209.937 281.504,210.377 281.958 M212.264 283.844 C 212.704 284.298,213.117 284.670,213.182 284.670 C 213.247 284.670,212.940 284.298,212.500 283.844 C 212.060 283.390,211.647 283.019,211.582 283.019 C 211.517 283.019,211.824 283.390,212.264 283.844 M214.151 285.731 C 214.591 286.185,215.004 286.557,215.069 286.557 C 215.134 286.557,214.827 286.185,214.387 285.731 C 213.947 285.277,213.534 284.906,213.469 284.906 C 213.404 284.906,213.711 285.277,214.151 285.731 M216.038 287.618 C 216.478 288.072,216.891 288.443,216.956 288.443 C 217.021 288.443,216.714 288.072,216.274 287.618 C 215.834 287.164,215.420 286.792,215.356 286.792 C 215.291 286.792,215.598 287.164,216.038 287.618 M217.925 289.505 C 218.365 289.959,218.778 290.330,218.843 290.330 C 218.907 290.330,218.600 289.959,218.160 289.505 C 217.720 289.051,217.307 288.679,217.242 288.679 C 217.178 288.679,217.484 289.051,217.925 289.505 M219.811 291.392 C 220.251 291.846,220.664 292.217,220.729 292.217 C 220.794 292.217,220.487 291.846,220.047 291.392 C 219.607 290.938,219.194 290.566,219.129 290.566 C 219.064 290.566,219.371 290.938,219.811 291.392 M221.698 293.278 C 222.138 293.732,222.551 294.104,222.616 294.104 C 222.681 294.104,222.374 293.732,221.934 293.278 C 221.494 292.824,221.081 292.453,221.016 292.453 C 220.951 292.453,221.258 292.824,221.698 293.278 M223.100 294.639 C 223.367 294.994,223.349 295.134,222.978 295.582 L 222.541 296.108 223.114 295.579 C 223.677 295.059,223.680 295.041,223.237 294.635 C 222.806 294.241,222.800 294.241,223.100 294.639 M221.450 297.111 L 220.637 297.995 221.521 297.183 C 222.344 296.426,222.514 296.226,222.334 296.226 C 222.295 296.226,221.897 296.624,221.450 297.111 " stroke="none" fill="#d4d4d4" fill-rule="evenodd"></path><path id="path4" d="M173.690 247.426 C 173.409 247.881,174.047 248.286,174.367 247.857 C 174.521 247.651,174.805 247.420,175.000 247.345 C 175.287 247.233,175.291 247.204,175.019 247.188 C 174.834 247.178,174.471 247.356,174.212 247.583 C 173.763 247.976,173.748 247.976,173.891 247.583 C 174.059 247.124,173.936 247.028,173.690 247.426 M175.943 247.459 C 176.268 247.601,176.639 247.732,176.769 247.749 C 176.899 247.767,176.972 247.927,176.932 248.105 C 176.877 248.352,176.936 248.366,177.181 248.163 C 177.357 248.017,177.734 247.958,178.019 248.033 C 178.585 248.180,178.701 247.899,178.258 247.456 C 178.042 247.240,177.871 247.270,177.510 247.586 C 177.066 247.975,177.050 247.975,177.193 247.583 C 177.362 247.120,177.114 247.037,176.725 247.426 C 176.540 247.611,176.424 247.611,176.310 247.426 C 176.223 247.285,175.972 247.177,175.753 247.185 C 175.481 247.195,175.542 247.282,175.943 247.459 M184.164 247.380 C 184.371 247.511,184.397 247.636,184.240 247.734 C 184.105 247.817,183.928 247.777,183.847 247.645 C 183.656 247.336,183.019 247.333,183.019 247.642 C 183.019 247.771,183.138 247.851,183.284 247.818 C 183.430 247.786,183.604 247.909,183.670 248.092 C 183.755 248.326,183.672 248.379,183.388 248.270 C 183.091 248.156,183.005 248.222,183.063 248.520 C 183.122 248.830,183.366 248.918,184.105 248.894 L 185.069 248.863 185.031 249.863 C 184.995 250.839,185.011 250.861,185.716 250.814 C 186.686 250.749,186.999 251.051,186.926 251.977 C 186.868 252.706,186.906 252.747,187.595 252.701 C 188.573 252.636,188.886 252.936,188.812 253.868 C 188.753 254.614,188.783 254.643,189.529 254.584 C 190.460 254.510,190.760 254.823,190.695 255.797 C 190.650 256.470,190.699 256.520,191.373 256.475 C 192.346 256.410,192.660 256.710,192.586 257.637 C 192.528 258.367,192.566 258.408,193.255 258.362 C 194.234 258.296,194.547 258.596,194.473 259.528 C 194.414 260.274,194.443 260.303,195.189 260.244 C 196.120 260.170,196.421 260.483,196.356 261.457 C 196.311 262.131,196.360 262.180,197.033 262.135 C 198.006 262.070,198.320 262.371,198.247 263.297 C 198.189 264.027,198.227 264.068,198.916 264.022 C 199.894 263.957,200.207 264.256,200.133 265.188 C 200.074 265.934,200.103 265.964,200.849 265.905 C 201.781 265.831,202.081 266.144,202.016 267.122 C 201.970 267.811,202.011 267.849,202.740 267.791 C 203.668 267.717,203.968 268.031,203.903 269.009 C 203.856 269.698,203.897 269.736,204.627 269.678 C 205.555 269.604,205.855 269.918,205.789 270.896 C 205.743 271.585,205.784 271.623,206.514 271.565 C 207.442 271.491,207.741 271.805,207.676 272.782 C 207.630 273.472,207.671 273.509,208.401 273.451 C 209.329 273.378,209.628 273.692,209.563 274.669 C 209.517 275.358,209.558 275.396,210.288 275.338 C 211.215 275.265,211.515 275.579,211.450 276.556 C 211.404 277.245,211.445 277.283,212.174 277.225 C 213.102 277.151,213.402 277.465,213.336 278.443 C 213.290 279.132,213.331 279.170,214.061 279.112 C 214.989 279.038,215.289 279.352,215.223 280.330 C 215.177 281.019,215.218 281.057,215.948 280.999 C 216.876 280.925,217.175 281.239,217.110 282.216 C 217.064 282.905,217.105 282.943,217.835 282.885 C 218.763 282.812,219.062 283.126,218.997 284.103 C 218.951 284.792,218.992 284.830,219.722 284.772 C 220.646 284.699,220.949 285.013,220.885 285.975 C 220.835 286.719,222.689 287.097,223.169 286.440 C 223.277 286.292,223.343 286.314,223.345 286.498 C 223.347 286.660,223.455 286.792,223.585 286.792 C 223.934 286.792,223.871 286.337,223.467 285.933 C 223.155 285.621,223.113 285.621,223.113 285.930 C 223.113 286.485,222.552 286.526,222.285 285.991 C 222.152 285.723,221.799 285.383,221.502 285.235 C 221.204 285.087,220.968 284.899,220.976 284.818 C 220.984 284.736,220.924 284.676,220.843 284.685 C 220.762 284.693,220.574 284.456,220.425 284.159 C 220.277 283.861,219.912 283.496,219.615 283.348 C 219.317 283.200,219.081 283.012,219.089 282.931 C 219.097 282.849,219.037 282.790,218.956 282.798 C 218.875 282.806,218.687 282.569,218.539 282.272 C 218.390 281.974,218.026 281.610,217.728 281.461 C 217.431 281.313,217.194 281.125,217.202 281.044 C 217.210 280.963,217.151 280.903,217.069 280.911 C 216.988 280.919,216.800 280.683,216.652 280.385 C 216.504 280.088,216.139 279.723,215.841 279.575 C 215.544 279.426,215.307 279.238,215.315 279.157 C 215.324 279.076,215.264 279.016,215.182 279.024 C 215.101 279.032,214.913 278.796,214.765 278.498 C 214.617 278.201,214.252 277.836,213.955 277.688 C 213.657 277.539,213.420 277.352,213.429 277.270 C 213.437 277.189,213.377 277.129,213.296 277.138 C 213.214 277.146,213.027 276.909,212.878 276.611 C 212.730 276.314,212.365 275.949,212.068 275.801 C 211.770 275.653,211.534 275.465,211.542 275.384 C 211.550 275.302,211.490 275.243,211.409 275.251 C 211.328 275.259,211.140 275.022,210.991 274.725 C 210.843 274.427,210.478 274.062,210.181 273.914 C 209.883 273.766,209.647 273.578,209.655 273.497 C 209.663 273.416,209.603 273.356,209.522 273.364 C 209.441 273.372,209.253 273.135,209.105 272.838 C 208.956 272.540,208.592 272.176,208.294 272.027 C 207.997 271.879,207.760 271.691,207.768 271.610 C 207.776 271.529,207.717 271.469,207.635 271.477 C 207.554 271.485,207.366 271.249,207.218 270.951 C 207.070 270.654,206.705 270.289,206.407 270.141 C 206.110 269.992,205.873 269.804,205.881 269.723 C 205.890 269.642,205.830 269.582,205.748 269.590 C 205.667 269.599,205.479 269.362,205.331 269.064 C 205.183 268.767,204.818 268.402,204.521 268.254 C 204.223 268.105,203.986 267.918,203.995 267.836 C 204.003 267.755,203.943 267.695,203.862 267.704 C 203.780 267.712,203.593 267.475,203.444 267.178 C 203.296 266.880,202.931 266.515,202.634 266.367 C 202.336 266.219,202.100 266.031,202.108 265.950 C 202.116 265.868,202.056 265.809,201.975 265.817 C 201.894 265.825,201.706 265.588,201.558 265.291 C 201.409 264.993,201.044 264.629,200.747 264.480 C 200.450 264.332,200.213 264.144,200.221 264.063 C 200.229 263.982,200.169 263.922,200.088 263.930 C 200.007 263.938,199.819 263.701,199.671 263.404 C 199.522 263.106,199.158 262.742,198.860 262.593 C 198.563 262.445,198.326 262.257,198.334 262.176 C 198.342 262.095,198.283 262.035,198.201 262.043 C 198.120 262.051,197.932 261.815,197.784 261.517 C 197.636 261.220,197.271 260.855,196.973 260.707 C 196.676 260.558,196.439 260.370,196.447 260.289 C 196.456 260.208,196.396 260.148,196.315 260.156 C 196.233 260.165,196.045 259.928,195.897 259.630 C 195.749 259.333,195.384 258.968,195.087 258.820 C 194.789 258.672,194.552 258.484,194.561 258.402 C 194.569 258.321,194.509 258.261,194.428 258.270 C 194.346 258.278,194.159 258.041,194.010 257.744 C 193.862 257.446,193.497 257.081,193.200 256.933 C 192.902 256.785,192.666 256.597,192.674 256.516 C 192.682 256.434,192.622 256.375,192.541 256.383 C 192.460 256.391,192.272 256.154,192.124 255.857 C 191.975 255.559,191.611 255.195,191.313 255.046 C 191.016 254.898,190.779 254.710,190.787 254.629 C 190.795 254.548,190.735 254.488,190.654 254.496 C 190.573 254.504,190.385 254.267,190.237 253.970 C 190.088 253.672,189.724 253.308,189.426 253.159 C 189.129 253.011,188.892 252.823,188.900 252.742 C 188.908 252.661,188.849 252.601,188.767 252.609 C 188.686 252.617,188.498 252.381,188.350 252.083 C 188.202 251.786,187.837 251.421,187.539 251.273 C 187.242 251.124,187.005 250.937,187.013 250.855 C 187.022 250.774,186.962 250.714,186.881 250.722 C 186.799 250.731,186.611 250.494,186.463 250.196 C 186.315 249.899,185.930 249.522,185.609 249.360 C 185.287 249.197,185.122 249.062,185.242 249.060 C 185.361 249.058,185.205 248.786,184.894 248.455 C 184.458 247.990,184.399 247.809,184.637 247.662 C 184.878 247.513,184.859 247.438,184.552 247.321 C 183.997 247.108,183.786 247.140,184.164 247.380 M220.124 247.588 C 219.738 247.875,219.766 247.892,220.401 247.745 C 220.790 247.654,221.204 247.494,221.321 247.387 C 221.677 247.062,220.585 247.246,220.124 247.588 M221.587 247.772 C 221.331 247.965,220.986 248.072,220.820 248.008 C 220.334 247.821,220.474 248.073,221.019 248.364 C 221.322 248.526,221.460 248.536,221.369 248.390 C 221.287 248.256,221.433 248.079,221.695 247.996 C 221.956 247.913,222.170 247.747,222.170 247.626 C 222.170 247.344,222.144 247.351,221.587 247.772 M222.069 248.248 C 221.528 248.789,221.802 249.524,222.524 249.471 C 223.650 249.387,223.670 249.764,223.563 268.868 L 223.472 285.024 223.349 268.278 L 223.226 251.533 223.170 268.312 C 223.120 283.010,223.157 285.108,223.465 285.226 C 223.775 285.345,223.825 283.400,223.880 269.037 L 223.942 252.712 223.999 269.792 C 224.031 279.185,224.114 286.814,224.183 286.744 C 224.596 286.332,224.272 253.076,223.840 251.428 C 223.383 249.688,222.701 248.579,222.394 249.076 C 222.273 249.271,222.185 249.273,222.066 249.080 C 221.977 248.935,222.070 248.651,222.273 248.448 C 222.639 248.082,222.735 247.877,222.540 247.877 C 222.485 247.877,222.273 248.044,222.069 248.248 M177.358 248.703 C 177.358 248.897,177.531 249.057,177.741 249.057 C 178.055 249.057,178.071 248.993,177.830 248.703 C 177.669 248.508,177.497 248.349,177.448 248.349 C 177.399 248.349,177.358 248.508,177.358 248.703 M178.388 248.929 C 178.098 249.556,178.777 250.567,179.118 250.014 C 179.204 249.876,179.533 249.827,179.849 249.907 C 180.466 250.061,180.602 249.800,180.143 249.341 C 179.925 249.123,179.747 249.168,179.353 249.538 C 178.901 249.963,178.811 249.976,178.544 249.654 C 178.248 249.298,178.445 249.159,179.087 249.271 C 179.363 249.319,179.178 248.522,178.892 248.430 C 178.762 248.388,178.535 248.612,178.388 248.929 M172.099 249.449 C 172.206 249.727,172.163 249.788,171.951 249.656 C 171.716 249.511,171.707 249.576,171.910 249.956 C 172.233 250.559,172.241 250.779,171.934 250.590 C 171.804 250.509,171.698 250.535,171.698 250.646 C 171.698 250.758,172.070 250.849,172.524 250.849 C 172.978 250.849,173.349 250.823,173.349 250.792 C 173.349 250.760,173.126 250.357,172.854 249.896 C 172.351 249.044,171.824 248.732,172.099 249.449 M224.130 249.499 C 223.917 249.840,223.922 250.176,224.154 250.960 L 224.455 251.978 224.435 250.517 C 224.424 249.714,224.413 249.057,224.410 249.057 C 224.408 249.057,224.282 249.256,224.130 249.499 M186.164 250.371 C 186.093 250.556,185.928 250.708,185.799 250.708 C 185.669 250.708,185.622 250.554,185.694 250.366 C 185.782 250.137,185.712 250.068,185.483 250.155 C 185.295 250.227,185.142 250.178,185.142 250.045 C 185.142 249.697,185.683 249.553,186.012 249.813 C 186.166 249.935,186.235 250.186,186.164 250.371 M179.245 250.590 C 179.245 250.784,179.417 250.943,179.628 250.943 C 179.941 250.943,179.957 250.879,179.717 250.590 C 179.555 250.395,179.383 250.236,179.334 250.236 C 179.285 250.236,179.245 250.395,179.245 250.590 M180.275 250.816 C 179.984 251.443,180.664 252.453,181.005 251.901 C 181.091 251.763,181.420 251.714,181.736 251.794 C 182.352 251.948,182.488 251.686,182.030 251.228 C 181.812 251.010,181.634 251.054,181.240 251.425 C 180.788 251.849,180.698 251.862,180.431 251.541 C 180.135 251.184,180.332 251.046,180.974 251.157 C 181.250 251.206,181.065 250.409,180.778 250.316 C 180.649 250.274,180.422 250.499,180.275 250.816 M173.585 251.429 C 173.585 251.566,173.684 251.618,173.804 251.543 C 173.925 251.468,174.084 251.504,174.157 251.622 C 174.230 251.741,174.122 251.902,173.918 251.980 C 173.313 252.212,173.677 252.697,174.487 252.737 C 175.407 252.784,175.422 252.625,174.574 251.813 C 173.868 251.137,173.585 251.027,173.585 251.429 M188.050 252.258 C 187.979 252.443,187.815 252.594,187.685 252.594 C 187.556 252.594,187.509 252.441,187.581 252.253 C 187.668 252.024,187.598 251.954,187.370 252.042 C 187.182 252.114,187.028 252.064,187.028 251.932 C 187.028 251.584,187.569 251.440,187.899 251.700 C 188.053 251.822,188.121 252.073,188.050 252.258 M174.794 252.300 C 175.083 252.668,175.076 252.680,174.728 252.408 C 174.410 252.159,174.318 252.159,174.230 252.408 C 174.170 252.575,174.030 252.627,173.919 252.523 C 173.769 252.382,174.145 251.926,174.440 251.890 C 174.457 251.888,174.616 252.073,174.794 252.300 M181.132 252.476 C 181.132 252.671,181.304 252.830,181.515 252.830 C 181.828 252.830,181.844 252.766,181.604 252.476 C 181.442 252.282,181.270 252.123,181.221 252.123 C 181.172 252.123,181.132 252.282,181.132 252.476 M182.162 252.703 C 181.871 253.330,182.551 254.340,182.892 253.788 C 182.978 253.649,183.307 253.601,183.623 253.680 C 184.239 253.835,184.375 253.573,183.917 253.115 C 183.699 252.897,183.521 252.941,183.127 253.311 C 182.674 253.736,182.585 253.749,182.318 253.428 C 182.022 253.071,182.219 252.932,182.860 253.044 C 183.136 253.092,182.951 252.296,182.665 252.203 C 182.535 252.161,182.309 252.386,182.162 252.703 M175.631 253.221 C 175.383 253.469,175.440 253.708,175.842 254.111 C 176.120 254.388,176.135 254.481,175.901 254.481 C 175.362 254.481,175.700 289.093,176.256 290.715 C 176.666 291.913,177.594 293.111,177.594 292.442 C 177.594 292.204,177.662 292.191,177.862 292.390 C 178.062 292.590,178.032 292.756,177.744 293.044 C 177.264 293.525,177.255 293.657,177.715 293.480 C 177.969 293.383,178.030 293.452,177.926 293.722 C 177.717 294.268,178.367 294.433,179.393 294.094 L 180.268 293.805 179.580 293.455 C 179.201 293.262,178.610 292.841,178.265 292.520 C 177.920 292.198,177.549 291.962,177.439 291.996 C 177.330 292.029,177.054 291.685,176.826 291.231 C 176.390 290.362,176.041 253.541,176.473 253.973 C 176.569 254.069,176.676 262.209,176.710 272.062 L 176.772 289.976 176.829 272.034 L 176.887 254.092 176.339 253.577 C 176.037 253.293,175.719 253.133,175.631 253.221 M189.937 254.145 C 189.866 254.330,189.702 254.481,189.572 254.481 C 189.442 254.481,189.395 254.327,189.467 254.139 C 189.555 253.911,189.485 253.841,189.257 253.929 C 189.069 254.001,188.915 253.951,188.915 253.818 C 188.915 253.471,189.456 253.327,189.786 253.587 C 189.940 253.708,190.008 253.960,189.937 254.145 M183.019 254.363 C 183.019 254.558,183.191 254.717,183.402 254.717 C 183.715 254.717,183.731 254.653,183.491 254.363 C 183.329 254.169,183.157 254.009,183.108 254.009 C 183.059 254.009,183.019 254.169,183.019 254.363 M184.049 254.590 C 183.758 255.217,184.438 256.227,184.779 255.675 C 184.864 255.536,185.193 255.488,185.510 255.567 C 186.126 255.722,186.262 255.460,185.804 255.002 C 185.586 254.784,185.407 254.828,185.013 255.198 C 184.561 255.623,184.471 255.636,184.205 255.314 C 183.909 254.958,184.106 254.819,184.747 254.931 C 185.023 254.979,184.838 254.183,184.552 254.090 C 184.422 254.048,184.196 254.273,184.049 254.590 M176.120 280.248 C 176.084 284.950,176.055 281.103,176.055 271.698 C 176.055 262.294,176.084 258.446,176.120 263.149 C 176.156 267.851,176.156 275.545,176.120 280.248 M191.824 256.031 C 191.753 256.216,191.589 256.368,191.459 256.368 C 191.329 256.368,191.282 256.214,191.354 256.026 C 191.442 255.798,191.372 255.728,191.144 255.816 C 190.956 255.888,190.802 255.838,190.802 255.705 C 190.802 255.358,191.343 255.214,191.672 255.473 C 191.827 255.595,191.895 255.846,191.824 256.031 M184.906 256.250 C 184.906 256.445,185.078 256.604,185.288 256.604 C 185.602 256.604,185.618 256.540,185.377 256.250 C 185.216 256.055,185.044 255.896,184.995 255.896 C 184.946 255.896,184.906 256.055,184.906 256.250 M185.936 256.476 C 185.645 257.103,186.324 258.114,186.666 257.562 C 186.751 257.423,187.080 257.375,187.397 257.454 C 188.013 257.609,188.149 257.347,187.690 256.888 C 187.472 256.671,187.294 256.715,186.900 257.085 C 186.448 257.510,186.358 257.523,186.091 257.201 C 185.796 256.845,185.992 256.706,186.634 256.818 C 186.910 256.866,186.725 256.070,186.439 255.977 C 186.309 255.935,186.083 256.159,185.936 256.476 M193.711 257.918 C 193.640 258.103,193.475 258.255,193.346 258.255 C 193.216 258.255,193.169 258.101,193.241 257.913 C 193.329 257.685,193.259 257.615,193.030 257.702 C 192.842 257.774,192.689 257.725,192.689 257.592 C 192.689 257.245,193.230 257.100,193.559 257.360 C 193.714 257.482,193.782 257.733,193.711 257.918 M186.792 258.137 C 186.792 258.331,186.965 258.491,187.175 258.491 C 187.488 258.491,187.505 258.427,187.264 258.137 C 187.103 257.942,186.930 257.783,186.881 257.783 C 186.833 257.783,186.792 257.942,186.792 258.137 M187.822 258.363 C 187.532 258.990,188.211 260.001,188.552 259.448 C 188.638 259.310,188.967 259.261,189.283 259.341 C 189.899 259.495,190.035 259.234,189.577 258.775 C 189.359 258.557,189.181 258.602,188.787 258.972 C 188.335 259.397,188.245 259.410,187.978 259.088 C 187.682 258.732,187.879 258.593,188.521 258.705 C 188.797 258.753,188.612 257.956,188.325 257.864 C 188.196 257.821,187.969 258.046,187.822 258.363 M195.598 259.805 C 195.527 259.990,195.362 260.142,195.233 260.142 C 195.103 260.142,195.056 259.988,195.128 259.800 C 195.216 259.571,195.146 259.501,194.917 259.589 C 194.729 259.661,194.575 259.612,194.575 259.479 C 194.575 259.131,195.117 258.987,195.446 259.247 C 195.600 259.369,195.669 259.620,195.598 259.805 M188.679 260.024 C 188.679 260.218,188.851 260.377,189.062 260.377 C 189.375 260.377,189.391 260.313,189.151 260.024 C 188.989 259.829,188.817 259.670,188.768 259.670 C 188.719 259.670,188.679 259.829,188.679 260.024 M189.709 260.250 C 189.418 260.877,190.098 261.887,190.439 261.335 C 190.525 261.197,190.854 261.148,191.170 261.228 C 191.786 261.382,191.922 261.120,191.464 260.662 C 191.246 260.444,191.068 260.488,190.674 260.859 C 190.222 261.283,190.132 261.296,189.865 260.975 C 189.569 260.618,189.766 260.479,190.408 260.591 C 190.684 260.640,190.499 259.843,190.212 259.750 C 190.083 259.708,189.856 259.933,189.709 260.250 M197.484 261.692 C 197.413 261.877,197.249 262.028,197.119 262.028 C 196.990 262.028,196.943 261.875,197.015 261.687 C 197.102 261.458,197.032 261.388,196.804 261.476 C 196.616 261.548,196.462 261.498,196.462 261.366 C 196.462 261.018,197.003 260.874,197.333 261.134 C 197.487 261.256,197.555 261.507,197.484 261.692 M190.566 261.910 C 190.566 262.105,190.738 262.264,190.949 262.264 C 191.262 262.264,191.278 262.200,191.038 261.910 C 190.876 261.716,190.704 261.557,190.655 261.557 C 190.606 261.557,190.566 261.716,190.566 261.910 M191.596 262.137 C 191.305 262.764,191.985 263.774,192.326 263.222 C 192.412 263.083,192.741 263.035,193.057 263.114 C 193.673 263.269,193.809 263.007,193.351 262.549 C 193.133 262.331,192.955 262.375,192.561 262.745 C 192.108 263.170,192.019 263.183,191.752 262.862 C 191.456 262.505,191.653 262.366,192.294 262.478 C 192.570 262.526,192.385 261.730,192.099 261.637 C 191.969 261.595,191.743 261.820,191.596 262.137 M199.371 263.579 C 199.300 263.764,199.136 263.915,199.006 263.915 C 198.876 263.915,198.829 263.761,198.901 263.573 C 198.989 263.345,198.919 263.275,198.691 263.363 C 198.503 263.435,198.349 263.385,198.349 263.252 C 198.349 262.905,198.890 262.761,199.219 263.021 C 199.374 263.142,199.442 263.393,199.371 263.579 M192.453 263.797 C 192.453 263.992,192.625 264.151,192.835 264.151 C 193.149 264.151,193.165 264.087,192.925 263.797 C 192.763 263.603,192.591 263.443,192.542 263.443 C 192.493 263.443,192.453 263.603,192.453 263.797 M193.483 264.023 C 193.192 264.651,193.871 265.661,194.213 265.109 C 194.298 264.970,194.627 264.922,194.944 265.001 C 195.560 265.156,195.696 264.894,195.238 264.436 C 195.020 264.218,194.841 264.262,194.447 264.632 C 193.995 265.057,193.905 265.070,193.639 264.748 C 193.343 264.392,193.540 264.253,194.181 264.365 C 194.457 264.413,194.272 263.617,193.986 263.524 C 193.856 263.482,193.630 263.707,193.483 264.023 M201.258 265.465 C 201.187 265.650,201.023 265.802,200.893 265.802 C 200.763 265.802,200.716 265.648,200.788 265.460 C 200.876 265.232,200.806 265.162,200.578 265.250 C 200.390 265.322,200.236 265.272,200.236 265.139 C 200.236 264.792,200.777 264.648,201.106 264.907 C 201.261 265.029,201.329 265.280,201.258 265.465 M194.340 265.684 C 194.340 265.879,194.512 266.038,194.722 266.038 C 195.036 266.038,195.052 265.974,194.811 265.684 C 194.650 265.489,194.478 265.330,194.429 265.330 C 194.380 265.330,194.340 265.489,194.340 265.684 M195.370 265.910 C 195.079 266.537,195.758 267.548,196.100 266.996 C 196.185 266.857,196.514 266.809,196.830 266.888 C 197.447 267.043,197.583 266.781,197.124 266.322 C 196.906 266.104,196.728 266.149,196.334 266.519 C 195.882 266.944,195.792 266.957,195.525 266.635 C 195.230 266.279,195.426 266.140,196.068 266.252 C 196.344 266.300,196.159 265.504,195.873 265.411 C 195.743 265.369,195.517 265.593,195.370 265.910 M203.145 267.352 C 203.074 267.537,202.909 267.689,202.780 267.689 C 202.650 267.689,202.603 267.535,202.675 267.347 C 202.763 267.118,202.693 267.049,202.464 267.136 C 202.276 267.208,202.123 267.159,202.123 267.026 C 202.123 266.679,202.664 266.534,202.993 266.794 C 203.147 266.916,203.216 267.167,203.145 267.352 M196.226 267.571 C 196.226 267.765,196.399 267.925,196.609 267.925 C 196.922 267.925,196.939 267.860,196.698 267.571 C 196.537 267.376,196.364 267.217,196.315 267.217 C 196.266 267.217,196.226 267.376,196.226 267.571 M197.256 267.797 C 196.966 268.424,197.645 269.435,197.986 268.882 C 198.072 268.744,198.401 268.695,198.717 268.775 C 199.333 268.929,199.469 268.668,199.011 268.209 C 198.793 267.991,198.615 268.036,198.221 268.406 C 197.769 268.831,197.679 268.844,197.412 268.522 C 197.116 268.166,197.313 268.027,197.955 268.139 C 198.231 268.187,198.046 267.390,197.759 267.297 C 197.630 267.255,197.403 267.480,197.256 267.797 M205.032 269.239 C 204.960 269.424,204.796 269.575,204.667 269.575 C 204.537 269.575,204.490 269.422,204.562 269.234 C 204.649 269.005,204.580 268.935,204.351 269.023 C 204.163 269.095,204.009 269.046,204.009 268.913 C 204.009 268.565,204.550 268.421,204.880 268.681 C 205.034 268.803,205.103 269.054,205.032 269.239 M198.113 269.458 C 198.113 269.652,198.285 269.811,198.496 269.811 C 198.809 269.811,198.825 269.747,198.585 269.458 C 198.423 269.263,198.251 269.104,198.202 269.104 C 198.153 269.104,198.113 269.263,198.113 269.458 M199.143 269.684 C 198.852 270.311,199.532 271.321,199.873 270.769 C 199.959 270.631,200.288 270.582,200.604 270.661 C 201.220 270.816,201.356 270.554,200.898 270.096 C 200.680 269.878,200.502 269.922,200.108 270.293 C 199.656 270.717,199.566 270.730,199.299 270.409 C 199.003 270.052,199.200 269.913,199.842 270.025 C 200.118 270.074,199.933 269.277,199.646 269.184 C 199.517 269.142,199.290 269.367,199.143 269.684 M206.918 271.126 C 206.847 271.311,206.683 271.462,206.553 271.462 C 206.424 271.462,206.376 271.308,206.449 271.121 C 206.536 270.892,206.466 270.822,206.238 270.910 C 206.050 270.982,205.896 270.932,205.896 270.800 C 205.896 270.452,206.437 270.308,206.767 270.568 C 206.921 270.690,206.989 270.941,206.918 271.126 M200.000 271.344 C 200.000 271.539,200.172 271.698,200.383 271.698 C 200.696 271.698,200.712 271.634,200.472 271.344 C 200.310 271.150,200.138 270.991,200.089 270.991 C 200.040 270.991,200.000 271.150,200.000 271.344 M201.030 271.571 C 200.739 272.198,201.419 273.208,201.760 272.656 C 201.846 272.517,202.175 272.469,202.491 272.548 C 203.107 272.703,203.243 272.441,202.785 271.983 C 202.567 271.765,202.389 271.809,201.995 272.179 C 201.542 272.604,201.453 272.617,201.186 272.296 C 200.890 271.939,201.087 271.800,201.728 271.912 C 202.004 271.960,201.819 271.164,201.533 271.071 C 201.403 271.029,201.177 271.254,201.030 271.571 M208.805 273.013 C 208.734 273.198,208.570 273.349,208.440 273.349 C 208.310 273.349,208.263 273.195,208.335 273.007 C 208.423 272.779,208.353 272.709,208.125 272.797 C 207.937 272.869,207.783 272.819,207.783 272.686 C 207.783 272.339,208.324 272.195,208.653 272.455 C 208.808 272.576,208.876 272.827,208.805 273.013 M201.887 273.231 C 201.887 273.426,202.059 273.585,202.269 273.585 C 202.583 273.585,202.599 273.521,202.358 273.231 C 202.197 273.037,202.025 272.877,201.976 272.877 C 201.927 272.877,201.887 273.037,201.887 273.231 M202.917 273.457 C 202.626 274.085,203.305 275.095,203.647 274.543 C 203.732 274.404,204.061 274.356,204.378 274.435 C 204.994 274.590,205.130 274.328,204.671 273.870 C 204.454 273.652,204.275 273.696,203.881 274.066 C 203.429 274.491,203.339 274.504,203.073 274.182 C 202.777 273.826,202.973 273.687,203.615 273.799 C 203.891 273.847,203.706 273.051,203.420 272.958 C 203.290 272.916,203.064 273.141,202.917 273.457 M210.692 274.899 C 210.621 275.084,210.457 275.236,210.327 275.236 C 210.197 275.236,210.150 275.082,210.222 274.894 C 210.310 274.666,210.240 274.596,210.012 274.683 C 209.824 274.756,209.670 274.706,209.670 274.573 C 209.670 274.226,210.211 274.082,210.540 274.341 C 210.695 274.463,210.763 274.714,210.692 274.899 M203.774 275.118 C 203.774 275.313,203.946 275.472,204.156 275.472 C 204.470 275.472,204.486 275.408,204.245 275.118 C 204.084 274.923,203.912 274.764,203.863 274.764 C 203.814 274.764,203.774 274.923,203.774 275.118 M204.804 275.344 C 204.513 275.971,205.192 276.982,205.533 276.430 C 205.619 276.291,205.948 276.242,206.264 276.322 C 206.881 276.477,207.017 276.215,206.558 275.756 C 206.340 275.538,206.162 275.583,205.768 275.953 C 205.316 276.378,205.226 276.391,204.959 276.069 C 204.664 275.713,204.860 275.574,205.502 275.686 C 205.778 275.734,205.593 274.938,205.307 274.845 C 205.177 274.803,204.951 275.027,204.804 275.344 M192.369 275.594 C 192.447 275.798,192.568 275.907,192.637 275.838 C 192.706 275.768,192.926 275.843,193.125 276.004 C 193.413 276.238,193.451 276.238,193.310 276.004 C 193.011 275.505,192.200 275.152,192.369 275.594 M212.579 276.786 C 212.508 276.971,212.343 277.123,212.214 277.123 C 212.084 277.123,212.037 276.969,212.109 276.781 C 212.197 276.552,212.127 276.483,211.898 276.570 C 211.710 276.642,211.557 276.593,211.557 276.460 C 211.557 276.113,212.098 275.968,212.427 276.228 C 212.581 276.350,212.650 276.601,212.579 276.786 M192.591 276.566 C 192.367 277.150,192.781 277.452,193.371 277.136 C 193.699 276.960,193.868 276.953,193.868 277.114 C 193.868 277.249,193.991 277.358,194.140 277.358 C 194.295 277.358,194.227 277.153,193.985 276.885 C 193.749 276.625,193.504 276.465,193.439 276.530 C 193.374 276.594,193.192 276.539,193.033 276.407 C 192.827 276.236,192.700 276.282,192.591 276.566 M189.205 277.535 C 188.824 278.022,188.563 278.567,188.626 278.747 C 188.690 278.929,188.634 279.009,188.501 278.927 C 188.023 278.632,187.688 279.399,188.110 279.821 C 188.324 280.036,188.433 280.278,188.351 280.360 C 188.269 280.441,188.067 280.323,187.902 280.097 C 187.619 279.710,187.575 279.714,187.160 280.173 C 186.918 280.441,186.815 280.662,186.933 280.664 C 187.050 280.666,187.009 280.755,186.841 280.861 C 186.657 280.978,186.945 281.047,187.566 281.035 C 188.559 281.015,188.595 280.989,188.552 280.307 C 188.494 279.373,188.648 279.009,189.103 279.009 C 189.437 279.009,189.436 278.978,189.090 278.715 C 188.734 278.444,188.740 278.375,189.163 277.863 L 189.623 277.306 189.623 277.851 C 189.623 278.264,189.689 278.330,189.896 278.123 C 190.099 277.919,190.101 277.768,189.901 277.528 C 189.701 277.287,189.704 277.136,189.911 276.928 C 190.064 276.776,190.123 276.651,190.043 276.651 C 189.964 276.651,189.586 277.049,189.205 277.535 M205.660 277.005 C 205.660 277.199,205.833 277.358,206.043 277.358 C 206.356 277.358,206.373 277.294,206.132 277.005 C 205.971 276.810,205.798 276.651,205.749 276.651 C 205.700 276.651,205.660 276.810,205.660 277.005 M206.690 277.231 C 206.400 277.858,207.079 278.869,207.420 278.316 C 207.506 278.178,207.835 278.129,208.151 278.209 C 208.767 278.363,208.903 278.102,208.445 277.643 C 208.227 277.425,208.049 277.470,207.655 277.840 C 207.203 278.265,207.113 278.277,206.846 277.956 C 206.550 277.600,206.747 277.461,207.389 277.573 C 207.665 277.621,207.480 276.824,207.193 276.731 C 207.064 276.689,206.837 276.914,206.690 277.231 M194.413 278.819 C 194.389 279.469,194.418 279.953,194.477 279.894 C 194.652 279.720,194.761 277.827,194.602 277.729 C 194.521 277.679,194.436 278.169,194.413 278.819 M214.465 278.673 C 214.394 278.858,214.230 279.009,214.100 279.009 C 213.971 279.009,213.924 278.856,213.996 278.668 C 214.083 278.439,214.014 278.369,213.785 278.457 C 213.597 278.529,213.443 278.480,213.443 278.347 C 213.443 277.999,213.984 277.855,214.314 278.115 C 214.468 278.237,214.536 278.488,214.465 278.673 M200.943 278.548 C 200.943 278.715,200.872 278.781,200.786 278.694 C 200.555 278.463,199.761 279.255,199.783 279.695 C 199.798 280.010,199.823 280.015,199.939 279.721 C 200.198 279.062,200.619 278.780,200.911 279.072 C 201.097 279.258,201.255 279.264,201.425 279.094 C 201.596 278.923,201.560 278.755,201.307 278.546 C 201.011 278.301,200.943 278.301,200.943 278.548 M207.547 278.892 C 207.547 279.086,207.719 279.245,207.930 279.245 C 208.243 279.245,208.259 279.181,208.019 278.892 C 207.857 278.697,207.685 278.538,207.636 278.538 C 207.587 278.538,207.547 278.697,207.547 278.892 M208.577 279.118 C 208.286 279.745,208.966 280.755,209.307 280.203 C 209.393 280.065,209.722 280.016,210.038 280.095 C 210.654 280.250,210.790 279.988,210.332 279.530 C 210.114 279.312,209.936 279.356,209.542 279.726 C 209.090 280.151,209.000 280.164,208.733 279.843 C 208.437 279.486,208.634 279.347,209.276 279.459 C 209.552 279.508,209.367 278.711,209.080 278.618 C 208.950 278.576,208.724 278.801,208.577 279.118 M189.858 279.009 C 189.572 279.194,189.606 279.239,190.035 279.242 C 190.327 279.244,190.566 279.139,190.566 279.009 C 190.566 278.714,190.316 278.714,189.858 279.009 M195.134 279.123 C 194.935 279.641,195.154 279.803,195.497 279.390 C 195.690 279.157,195.700 279.003,195.529 278.898 C 195.392 278.813,195.214 278.914,195.134 279.123 M195.852 279.658 C 195.944 279.820,195.906 279.953,195.769 279.953 C 195.366 279.953,195.482 280.388,195.950 280.639 C 196.476 280.920,196.515 280.133,195.999 279.654 C 195.750 279.423,195.720 279.424,195.852 279.658 M216.352 280.560 C 216.281 280.745,216.117 280.896,215.987 280.896 C 215.858 280.896,215.810 280.742,215.883 280.554 C 215.970 280.326,215.900 280.256,215.672 280.344 C 215.484 280.416,215.330 280.366,215.330 280.234 C 215.330 279.886,215.871 279.742,216.201 280.002 C 216.355 280.124,216.423 280.375,216.352 280.560 M199.470 280.464 C 199.576 280.867,199.522 280.944,199.220 280.828 C 199.009 280.747,198.763 280.799,198.674 280.943 C 198.576 281.102,198.619 281.139,198.784 281.037 C 199.146 280.813,199.137 281.429,198.774 281.792 C 198.335 282.231,198.016 282.126,198.379 281.663 C 198.675 281.285,198.666 281.279,198.274 281.587 C 197.889 281.890,197.785 281.854,197.258 281.233 L 196.672 280.542 197.069 281.197 C 197.288 281.556,197.639 281.951,197.849 282.074 C 198.183 282.269,198.185 282.298,197.866 282.304 C 197.665 282.308,197.374 282.186,197.221 282.032 C 197.067 281.879,196.878 281.817,196.800 281.895 C 196.429 282.266,197.598 282.985,198.035 282.654 C 198.273 282.474,198.639 282.323,198.850 282.319 C 199.087 282.314,199.289 282.034,199.378 281.588 C 199.458 281.190,199.620 280.925,199.739 280.999 C 199.859 281.072,199.900 280.919,199.832 280.657 C 199.763 280.395,199.624 280.130,199.522 280.067 C 199.420 280.004,199.397 280.182,199.470 280.464 M202.227 280.291 C 201.860 280.562,201.827 280.688,202.064 280.928 C 202.301 281.168,202.416 281.168,202.653 280.929 C 202.890 280.691,202.866 280.664,202.535 280.790 C 202.296 280.881,202.123 280.837,202.123 280.686 C 202.123 280.442,202.452 280.323,202.907 280.402 C 203.014 280.421,203.034 280.327,202.952 280.195 C 202.763 279.889,202.773 279.888,202.227 280.291 M187.972 280.705 C 187.972 281.015,187.436 280.821,187.318 280.469 C 187.261 280.296,187.369 280.244,187.598 280.332 C 187.804 280.411,187.972 280.579,187.972 280.705 M194.483 280.562 C 194.261 281.139,194.309 281.196,194.693 280.812 C 195.094 280.411,195.145 280.189,194.837 280.189 C 194.721 280.189,194.562 280.357,194.483 280.562 M209.434 280.778 C 209.434 280.973,209.606 281.132,209.817 281.132 C 210.130 281.132,210.146 281.068,209.906 280.778 C 209.744 280.584,209.572 280.425,209.523 280.425 C 209.474 280.425,209.434 280.584,209.434 280.778 M210.464 281.005 C 210.173 281.632,210.853 282.642,211.194 282.090 C 211.280 281.951,211.608 281.903,211.925 281.982 C 212.541 282.137,212.677 281.875,212.219 281.417 C 212.001 281.199,211.823 281.243,211.429 281.613 C 210.976 282.038,210.887 282.051,210.620 281.730 C 210.324 281.373,210.521 281.234,211.162 281.346 C 211.438 281.394,211.253 280.598,210.967 280.505 C 210.837 280.463,210.611 280.688,210.464 281.005 M186.557 281.708 C 186.557 281.979,186.435 282.079,186.210 281.993 C 186.020 281.920,185.807 281.952,185.738 282.064 C 185.564 282.346,185.846 283.019,186.139 283.019 C 186.275 283.019,186.250 282.864,186.080 282.659 C 185.916 282.462,185.850 282.232,185.933 282.148 C 186.017 282.065,186.085 282.121,186.085 282.272 C 186.085 282.423,186.184 282.547,186.305 282.547 C 186.570 282.547,186.893 281.626,186.696 281.429 C 186.619 281.352,186.557 281.478,186.557 281.708 M218.239 282.446 C 218.168 282.632,218.004 282.783,217.874 282.783 C 217.744 282.783,217.697 282.629,217.769 282.441 C 217.857 282.213,217.787 282.143,217.559 282.231 C 217.371 282.303,217.217 282.253,217.217 282.120 C 217.217 281.773,217.758 281.629,218.087 281.889 C 218.242 282.010,218.310 282.261,218.239 282.446 M204.113 282.178 C 203.747 282.448,203.714 282.575,203.950 282.814 C 204.187 283.055,204.303 283.055,204.540 282.816 C 204.776 282.578,204.753 282.550,204.422 282.676 C 204.183 282.767,204.009 282.724,204.009 282.572 C 204.009 282.329,204.339 282.210,204.793 282.289 C 204.900 282.308,204.921 282.214,204.839 282.081 C 204.650 281.776,204.659 281.775,204.113 282.178 M211.321 282.665 C 211.321 282.860,211.493 283.019,211.703 283.019 C 212.017 283.019,212.033 282.955,211.792 282.665 C 211.631 282.471,211.459 282.311,211.410 282.311 C 211.361 282.311,211.321 282.471,211.321 282.665 M212.351 282.891 C 212.060 283.519,212.739 284.529,213.081 283.977 C 213.166 283.838,213.495 283.790,213.812 283.869 C 214.428 284.024,214.564 283.762,214.105 283.304 C 213.888 283.086,213.709 283.130,213.315 283.500 C 212.863 283.925,212.773 283.938,212.507 283.616 C 212.211 283.260,212.407 283.121,213.049 283.233 C 213.325 283.281,213.140 282.485,212.854 282.392 C 212.724 282.350,212.498 282.575,212.351 282.891 M195.212 283.196 C 188.317 283.237,184.695 283.341,184.789 283.493 C 184.996 283.828,205.660 283.811,205.660 283.477 C 205.660 283.339,205.783 283.303,205.933 283.395 C 206.101 283.499,206.141 283.460,206.037 283.291 C 205.944 283.141,205.848 283.044,205.823 283.075 C 205.799 283.106,201.023 283.161,195.212 283.196 M220.126 284.333 C 220.055 284.518,219.891 284.670,219.761 284.670 C 219.631 284.670,219.584 284.516,219.656 284.328 C 219.744 284.100,219.674 284.030,219.446 284.117 C 219.258 284.190,219.104 284.140,219.104 284.007 C 219.104 283.660,219.645 283.516,219.974 283.775 C 220.129 283.897,220.197 284.148,220.126 284.333 M213.208 284.552 C 213.208 284.746,213.380 284.906,213.590 284.906 C 213.904 284.906,213.920 284.842,213.679 284.552 C 213.518 284.357,213.346 284.198,213.297 284.198 C 213.248 284.198,213.208 284.357,213.208 284.552 M214.238 284.778 C 213.947 285.405,214.626 286.416,214.967 285.864 C 215.053 285.725,215.382 285.676,215.698 285.756 C 216.315 285.910,216.451 285.649,215.992 285.190 C 215.774 284.972,215.596 285.017,215.202 285.387 C 214.750 285.812,214.660 285.825,214.393 285.503 C 214.098 285.147,214.294 285.008,214.936 285.120 C 215.212 285.168,215.027 284.372,214.741 284.279 C 214.611 284.237,214.384 284.461,214.238 284.778 M222.013 286.220 C 221.942 286.405,221.777 286.557,221.648 286.557 C 221.518 286.557,221.471 286.403,221.543 286.215 C 221.631 285.986,221.561 285.917,221.332 286.004 C 221.144 286.076,220.991 286.027,220.991 285.894 C 220.991 285.546,221.532 285.402,221.861 285.662 C 222.015 285.784,222.084 286.035,222.013 286.220 M215.094 286.439 C 215.094 286.633,215.267 286.792,215.477 286.792 C 215.790 286.792,215.807 286.728,215.566 286.439 C 215.405 286.244,215.232 286.085,215.183 286.085 C 215.134 286.085,215.094 286.244,215.094 286.439 M216.124 286.665 C 215.833 287.292,216.513 288.303,216.854 287.750 C 216.940 287.612,217.269 287.563,217.585 287.643 C 218.201 287.797,218.337 287.535,217.879 287.077 C 217.661 286.859,217.483 286.904,217.089 287.274 C 216.637 287.699,216.547 287.711,216.280 287.390 C 215.984 287.034,216.181 286.895,216.823 287.007 C 217.099 287.055,216.914 286.258,216.627 286.165 C 216.498 286.123,216.271 286.348,216.124 286.665 M216.981 288.325 C 216.981 288.520,217.153 288.679,217.364 288.679 C 217.677 288.679,217.693 288.615,217.453 288.325 C 217.291 288.131,217.119 287.972,217.070 287.972 C 217.021 287.972,216.981 288.131,216.981 288.325 M218.011 288.552 C 217.720 289.179,218.400 290.189,218.741 289.637 C 218.827 289.498,219.156 289.450,219.472 289.529 C 220.088 289.684,220.224 289.422,219.766 288.964 C 219.548 288.746,219.370 288.790,218.976 289.160 C 218.523 289.585,218.434 289.598,218.167 289.277 C 217.871 288.920,218.068 288.781,218.710 288.893 C 218.985 288.941,218.801 288.145,218.514 288.052 C 218.384 288.010,218.158 288.235,218.011 288.552 M175.565 290.964 C 175.581 292.152,175.633 292.328,175.868 291.992 C 176.090 291.674,176.086 291.363,175.849 290.559 L 175.545 289.531 175.565 290.964 M218.868 290.212 C 218.868 290.407,219.040 290.566,219.251 290.566 C 219.564 290.566,219.580 290.502,219.340 290.212 C 219.178 290.018,219.006 289.858,218.957 289.858 C 218.908 289.858,218.868 290.018,218.868 290.212 M219.898 290.439 C 219.607 291.066,220.287 292.076,220.628 291.524 C 220.714 291.385,221.042 291.337,221.359 291.416 C 221.975 291.571,222.111 291.309,221.653 290.851 C 221.435 290.633,221.257 290.677,220.863 291.047 C 220.410 291.472,220.321 291.485,220.054 291.164 C 219.758 290.807,219.955 290.668,220.596 290.780 C 220.872 290.828,220.687 290.032,220.401 289.939 C 220.271 289.897,220.045 290.122,219.898 290.439 M220.755 292.099 C 220.755 292.294,220.927 292.453,221.137 292.453 C 221.451 292.453,221.467 292.389,221.226 292.099 C 221.065 291.904,220.893 291.745,220.844 291.745 C 220.795 291.745,220.755 291.904,220.755 292.099 M221.785 292.325 C 221.494 292.952,222.173 293.963,222.515 293.411 C 222.600 293.272,222.929 293.224,223.246 293.303 C 223.862 293.458,223.998 293.196,223.539 292.738 C 223.321 292.520,223.143 292.564,222.749 292.934 C 222.297 293.359,222.207 293.372,221.940 293.050 C 221.645 292.694,221.841 292.555,222.483 292.667 C 222.759 292.715,222.574 291.919,222.288 291.826 C 222.158 291.784,221.932 292.009,221.785 292.325 M179.444 293.604 C 179.672 293.749,179.573 293.841,179.090 293.933 C 178.308 294.084,178.049 293.936,178.545 293.623 C 178.971 293.353,179.046 293.352,179.444 293.604 M222.642 293.986 C 222.642 294.180,222.814 294.340,223.024 294.340 C 223.338 294.340,223.354 294.276,223.113 293.986 C 222.952 293.791,222.780 293.632,222.731 293.632 C 222.682 293.632,222.642 293.791,222.642 293.986 M223.685 294.183 C 223.454 294.682,223.481 294.721,223.992 294.623 C 224.338 294.557,224.525 294.377,224.481 294.153 C 224.368 293.573,223.961 293.589,223.685 294.183 M216.981 294.825 C 216.981 294.963,217.080 295.014,217.201 294.939 C 217.321 294.865,217.480 294.900,217.553 295.019 C 217.626 295.137,217.519 295.298,217.314 295.376 C 216.709 295.608,217.074 296.093,217.883 296.134 C 218.803 296.180,218.818 296.021,217.971 295.209 C 217.265 294.533,216.981 294.423,216.981 294.825 M218.190 295.696 C 218.480 296.065,218.473 296.076,218.124 295.804 C 217.806 295.555,217.715 295.555,217.626 295.804 C 217.566 295.971,217.426 296.023,217.315 295.919 C 217.165 295.778,217.541 295.322,217.837 295.287 C 217.853 295.285,218.012 295.469,218.190 295.696 M218.868 296.712 C 218.868 296.849,218.967 296.901,219.087 296.826 C 219.208 296.751,219.367 296.787,219.440 296.905 C 219.513 297.024,219.405 297.185,219.201 297.263 C 218.596 297.495,218.960 297.980,219.770 298.020 C 220.690 298.067,220.705 297.908,219.857 297.096 C 219.151 296.420,218.868 296.310,218.868 296.712 M221.374 297.373 C 220.936 297.857,220.885 298.113,221.226 298.113 C 221.356 298.113,221.450 298.034,221.434 297.936 C 221.356 297.437,221.496 297.362,221.780 297.750 C 222.083 298.164,222.642 298.090,222.642 297.636 C 222.642 297.128,221.761 296.945,221.374 297.373 M220.077 297.583 C 220.366 297.951,220.359 297.963,220.011 297.691 C 219.693 297.442,219.601 297.442,219.513 297.691 C 219.453 297.858,219.313 297.910,219.202 297.806 C 219.052 297.665,219.428 297.209,219.723 297.173 C 219.740 297.171,219.899 297.356,220.077 297.583 " stroke="none" fill="#f4f4f4" fill-rule="evenodd"></path></g></svg>